<svg width="517" height="284" viewBox="0 0 517 284" fill="none" xmlns="http://www.w3.org/2000/svg">
<g clip-path="url(#clip0_760_41)">
<path d="M47.8445 233.098C47.4349 233.116 47.0298 233.007 46.6837 232.787C46.3376 232.567 46.0673 232.246 45.9091 231.868C45.7509 231.489 45.7126 231.071 45.7992 230.67C45.8859 230.268 46.0933 229.904 46.3936 229.624L46.5306 229.078L46.4764 228.949C46.0634 227.972 45.3714 227.139 44.4872 226.555C43.603 225.97 42.5661 225.661 41.5067 225.665C40.4474 225.669 39.4128 225.986 38.533 226.577C37.6531 227.168 36.9673 228.006 36.5616 228.985C34.9402 232.896 32.878 236.815 32.3674 240.948C32.1435 242.776 32.238 244.628 32.6466 246.424C28.8381 238.105 26.8605 229.064 26.8478 219.913C26.8471 217.616 26.9746 215.322 27.2297 213.04C27.4404 211.169 27.733 209.311 28.1074 207.467C30.1487 197.46 34.5315 188.082 40.896 180.1C43.9764 178.418 46.4676 175.83 48.0338 172.686C48.6012 171.555 49.0022 170.349 49.2242 169.103C48.8765 169.149 48.5237 169.178 48.176 169.2L47.8458 169.217H47.805C47.423 169.235 47.0441 169.141 46.714 168.948C46.3838 168.754 46.1166 168.469 45.9445 168.128C45.7724 167.786 45.7027 167.401 45.7439 167.02C45.785 166.64 45.9353 166.279 46.1765 165.982L46.6289 165.427C46.857 165.142 47.0903 164.862 47.3184 164.578C47.3448 164.551 47.3696 164.522 47.3927 164.492C47.6551 164.169 47.9169 163.845 48.1786 163.522C47.7002 162.778 47.0569 162.156 46.2986 161.702C43.6723 160.162 40.0494 161.228 38.1527 163.607C36.2559 165.986 35.8908 169.322 36.5519 172.294C37.2018 174.823 38.2768 177.222 39.7308 179.389C39.5886 179.572 39.44 179.748 39.2978 179.931C36.6944 183.283 34.4254 186.882 32.5232 190.677C32.9856 186.425 32.4334 182.125 30.9121 178.129C29.3701 174.404 26.4801 171.27 23.9326 168.048C20.8758 164.18 14.6072 165.869 14.0689 170.771C14.0637 170.818 14.0585 170.866 14.0534 170.913C14.4312 171.127 14.8013 171.353 15.1636 171.593C15.6187 171.897 15.9715 172.332 16.1755 172.84C16.3796 173.349 16.4254 173.907 16.307 174.442C16.1887 174.977 15.9116 175.463 15.5122 175.838C15.1128 176.212 14.6097 176.457 14.0689 176.54L14.0133 176.549C14.1476 177.913 14.3852 179.265 14.7242 180.593C15.7074 184.3 17.445 187.764 19.8279 190.767C22.2109 193.771 25.1878 196.249 28.572 198.046C28.7943 198.16 29.0108 198.275 29.2331 198.383C27.3221 203.805 26.1234 209.454 25.6671 215.186C25.4089 218.568 25.4242 221.965 25.713 225.345L25.6962 225.225C24.9669 221.468 22.9648 218.077 20.0279 215.626C15.6664 212.039 9.50376 210.717 4.79776 207.833C4.29764 207.512 3.71613 207.34 3.12184 207.339C2.52755 207.338 1.94524 207.506 1.4436 207.825C0.941951 208.144 0.541883 208.6 0.290571 209.14C0.0392593 209.679 -0.0528179 210.279 0.025202 210.869C0.0316645 210.912 0.0381262 210.954 0.0445887 210.995C0.745959 211.281 1.42886 211.611 2.08932 211.982C2.46717 212.197 2.83725 212.424 3.19958 212.662C3.65472 212.966 4.00743 213.401 4.21148 213.909C4.41553 214.417 4.46137 214.975 4.34301 215.51C4.22464 216.045 3.94758 216.532 3.54817 216.906C3.14876 217.281 2.64566 217.526 2.10484 217.609L2.04926 217.617L1.93552 217.635C3.13501 220.5 4.8183 223.138 6.91165 225.432C9.4962 228.209 12.62 230.428 16.0915 231.953C19.5629 233.478 23.309 234.277 27.0998 234.301H27.1057C28.1345 238.779 29.6255 243.138 31.5545 247.307H47.4464C47.5032 247.131 47.5543 246.948 47.606 246.771C46.136 246.863 44.6602 246.775 43.2115 246.509C44.3909 245.06 45.5697 243.597 46.7491 242.151C46.7755 242.124 46.8003 242.095 46.8234 242.065C47.4218 241.324 48.0254 240.588 48.6232 239.847C48.6549 237.574 48.3943 235.306 47.8477 233.1L47.8445 233.098Z" fill="#F2F2F2"/>
<path d="M244 246.5C244 246.697 243.983 246.892 243.95 247.075C243.917 247.257 243.869 247.423 243.807 247.562C243.746 247.701 243.673 247.812 243.593 247.887C243.512 247.962 243.426 248.001 243.34 248H0.660407C0.573682 248 0.487807 247.961 0.407683 247.886C0.327559 247.81 0.254753 247.7 0.193428 247.561C0.132104 247.421 0.0834646 247.256 0.0502762 247.074C0.0170877 246.892 0 246.697 0 246.5C0 246.303 0.0170877 246.108 0.0502762 245.926C0.0834646 245.744 0.132104 245.579 0.193428 245.439C0.254753 245.3 0.327559 245.19 0.407683 245.114C0.487807 245.039 0.573682 245 0.660407 245H243.34C243.426 244.999 243.512 245.038 243.593 245.113C243.673 245.188 243.746 245.299 243.807 245.438C243.869 245.577 243.917 245.743 243.95 245.925C243.983 246.107 244 246.303 244 246.5Z" fill="#E6E6E6"/>
<path d="M17.5 248C17.5657 248 17.6308 248.002 17.6916 248.007C17.7523 248.012 17.8075 248.019 17.854 248.028C17.9005 248.038 17.9373 248.048 17.9623 248.06C17.9874 248.072 18.0002 248.085 18 248.097L18 283.903C18 283.915 17.9871 283.928 17.9619 283.94C17.9368 283.952 17.9 283.962 17.8535 283.971C17.8071 283.981 17.752 283.988 17.6913 283.993C17.6307 283.997 17.5656 284 17.5 284C17.4343 284 17.3693 283.997 17.3087 283.993C17.248 283.988 17.1929 283.981 17.1464 283.971C17.1 283.962 17.0632 283.952 17.0381 283.94C17.0129 283.928 17 283.915 17 283.903L17 248.097C16.9998 248.085 17.0126 248.072 17.0377 248.06C17.0627 248.048 17.0995 248.038 17.146 248.028C17.1925 248.019 17.2477 248.012 17.3084 248.007C17.3692 248.002 17.4343 248 17.5 248Z" fill="#E6E6E6"/>
<path d="M18.5 247C18.6971 247 18.8924 247.003 19.0747 247.008C19.2569 247.013 19.4226 247.02 19.562 247.029C19.7014 247.039 19.8118 247.05 19.887 247.062C19.9622 247.074 20.0006 247.087 20 247.1L20 283.9C20 283.913 19.9612 283.926 19.8858 283.938C19.8104 283.95 19.6999 283.961 19.5606 283.971C19.4213 283.98 19.256 283.987 19.074 283.992C18.8921 283.997 18.6969 284 18.5 284C18.303 284 18.1079 283.997 17.926 283.992C17.744 283.987 17.5786 283.98 17.4393 283.971C17.3 283.961 17.1896 283.95 17.1142 283.938C17.0388 283.926 17 283.913 17 283.9L17 247.1C16.9994 247.087 17.0378 247.074 17.113 247.062C17.1882 247.05 17.2986 247.039 17.438 247.029C17.5774 247.02 17.743 247.013 17.9252 247.008C18.1075 247.003 18.3028 247 18.5 247Z" fill="#E6E6E6"/>
<path d="M224.5 247C224.697 247 224.892 247.003 225.075 247.008C225.257 247.013 225.423 247.02 225.562 247.029C225.701 247.039 225.812 247.05 225.887 247.062C225.962 247.074 226.001 247.087 226 247.1V283.9C226 283.913 225.961 283.926 225.886 283.938C225.81 283.95 225.7 283.961 225.561 283.971C225.421 283.98 225.256 283.987 225.074 283.992C224.892 283.997 224.697 284 224.5 284C224.303 284 224.108 283.997 223.926 283.992C223.744 283.987 223.579 283.98 223.439 283.971C223.3 283.961 223.19 283.95 223.114 283.938C223.039 283.926 223 283.913 223 283.9V247.1C222.999 247.087 223.038 247.074 223.113 247.062C223.188 247.05 223.299 247.039 223.438 247.029C223.577 247.02 223.743 247.013 223.925 247.008C224.107 247.003 224.303 247 224.5 247Z" fill="#E6E6E6"/>
<path d="M160.011 162.627L167.533 160.848L169.108 169.232L162.027 172.351L160.011 162.627Z" fill="#9F616A"/>
<path d="M128.666 274.063H135.986L136.516 281.061L129.601 281.631C129.601 281.631 120.672 283.63 120.672 281.88C120.509 281.098 120.279 280.33 119.985 279.587L126.413 277.74L128.666 274.063Z" fill="#9F616A"/>
<path d="M135.588 286.515H120.732C119.455 286.513 118.195 286.226 117.043 285.674L114.303 284.354C114.001 284.209 113.751 283.975 113.585 283.684C113.42 283.392 113.347 283.057 113.377 282.723C113.407 282.389 113.538 282.073 113.752 281.815C113.967 281.558 114.255 281.372 114.578 281.283L120.228 279.717L121.82 281.283C122.001 282.199 130.244 281.283 130.244 281.283L135.588 280.83C135.775 280.371 135.987 279.923 136.224 279.488C136.677 278.63 136.16 276.631 136.653 278.16C137.146 279.69 138.797 285.12 138.199 285.602C137.458 286.192 136.537 286.512 135.59 286.508L135.588 286.515Z" fill="#090814" stroke="#06060F" stroke-width="1.5" stroke-miterlimit="10"/>
<path d="M83.4481 233.378L87.3264 239.591L81.6786 243.752L77.5317 238.184C77.5317 238.184 71.107 231.663 72.5893 230.735C73.1665 230.183 73.6952 229.582 74.1698 228.939L79.1406 233.416L83.4481 233.378Z" fill="#9F616A"/>
<path d="M76.5674 245.855L68.6957 233.243C68.0206 232.157 67.5962 230.935 67.4534 229.664L67.1192 226.638C67.0818 226.305 67.147 225.968 67.3062 225.673C67.4654 225.377 67.7109 225.137 68.0099 224.986C68.3089 224.834 68.6471 224.777 68.9791 224.823C69.3112 224.869 69.6212 225.015 69.8677 225.243L74.1892 229.209L73.7054 231.391C73.0256 232.03 78.1692 238.543 78.1692 238.543L81.3846 242.84C81.8727 242.755 82.365 242.698 82.8594 242.668C83.8261 242.598 85.245 241.099 84.2109 242.328C83.1767 243.558 79.451 247.839 78.7255 247.587C77.8325 247.271 77.0742 246.659 76.5759 245.853L76.5674 245.855Z" fill="#090814" stroke="#06060F" stroke-width="1.5" stroke-miterlimit="10"/>
<path d="M136.982 160.461C137.545 160.649 138.061 160.959 138.492 161.369C138.923 161.779 139.259 162.279 139.477 162.833C139.694 163.386 139.788 163.981 139.751 164.575C139.714 165.169 139.547 165.748 139.262 166.271L145.093 173.514L141.562 178.135L133.471 167.791C132.626 167.254 132.007 166.425 131.731 165.462C131.456 164.499 131.543 163.468 131.975 162.564C132.408 161.661 133.157 160.948 134.079 160.56C135.002 160.172 136.035 160.137 136.982 160.461Z" fill="#A0616A"/>
<path d="M139.585 180.191L136.29 171.988L142.382 167.656L145.229 172.768L149.387 175.608L154.911 180.519C156.408 179.29 167.896 170.07 171.571 173.989C172.018 174.429 172.364 174.96 172.586 175.547C172.808 176.134 172.9 176.762 172.857 177.388C172.628 180.371 169.468 182.876 169.349 182.967L162.374 189.524C162.116 189.968 159.373 194.536 156.24 195.331C155.793 195.454 155.326 195.482 154.868 195.415C154.41 195.347 153.97 195.185 153.578 194.938C146.449 190.555 141.89 186.242 140.216 182.326C139.918 181.643 139.707 180.926 139.585 180.191Z" fill="#001AFF"/>
<path d="M185.62 228.417C185.62 228.417 183.392 242.658 172.861 243.712C162.33 244.766 152.622 240.016 152.622 240.016L123.135 230.923C123.135 230.923 91.7714 239.846 86.5057 241.252C86.5057 241.252 82.8738 232.998 82.9953 232.465C84.1152 227.559 85.5738 230.877 85.5738 230.877L118.92 216.115C118.92 216.115 124.186 214.709 133.313 218.574C142.44 222.439 166.891 231.76 166.891 231.76L185.62 228.417Z" fill="#090814"/>
<path d="M185.498 227.543C185.498 227.543 187.255 244.603 176.996 247.209C167.244 249.687 153.796 247.145 153.796 247.145L137.76 245.468C137.76 245.468 137.058 266.099 137.058 276.291C133.8 276.735 130.517 276.969 127.229 276.994C126.527 276.994 126.481 276.626 126.481 276.626L125.124 240.972C125.029 239.422 125.259 237.869 125.799 236.413C126.339 234.958 127.178 233.631 128.261 232.519C129.344 231.407 130.647 230.535 132.087 229.958C133.527 229.38 135.072 229.111 136.622 229.168C137.379 229.197 138.173 229.25 139.004 229.329C148.869 230.276 161.116 228.262 161.116 228.262L185.498 227.543Z" fill="#090814"/>
<path d="M157.045 202.795C157.045 202.795 152.88 228.012 155.695 230.025C158.509 232.038 162.368 232.046 162.368 232.046L163.266 218.123L157.045 202.795Z" fill="#D6D6E3"/>
<path d="M163.989 171.826L158.421 177.124C155.834 179.587 154.118 182.827 153.535 186.353C152.952 189.879 153.533 193.5 155.19 196.666L157.852 201.748L163.989 171.826Z" fill="#001AFF"/>
<path d="M165.235 172.716L157.69 181.322C156.034 183.211 155.008 185.57 154.755 188.07C154.64 189.205 154.686 190.351 154.893 191.474L157.736 206.951L159.873 229.302C159.873 229.302 176.373 234.308 178.062 226.578C179.751 218.848 165.235 172.716 165.235 172.716Z" fill="#001AFF"/>
<path d="M160.934 221.988L158.521 216.432L156.474 201.948C156.363 201.107 158.653 187.316 161.97 172.522L166.002 166.871L168.328 164.736L174.952 169.084C177.343 170.349 182.566 186.867 179.35 198.556C178.244 202.577 180.177 207.584 180.476 211.278L185.064 222.573L186.151 229.105L185.985 229.17C185.82 229.234 183.163 229.592 172.316 231.402C163.331 232.901 168.252 225.523 160.934 221.988Z" fill="#001AFF"/>
<path d="M139.702 215.918C140.032 215.423 140.466 215.006 140.974 214.697C141.482 214.388 142.052 214.194 142.643 214.129C143.233 214.064 143.831 214.13 144.394 214.321C144.957 214.513 145.471 214.826 145.9 215.238L154.41 211.502L157.938 216.127L145.847 221.233C145.108 221.909 144.147 222.29 143.146 222.304C142.146 222.318 141.174 221.964 140.417 221.309C139.659 220.653 139.168 219.743 139.037 218.749C138.905 217.756 139.142 216.749 139.702 215.918Z" fill="#A0616A"/>
<path d="M159.401 218.571L150.631 219.603L148.053 212.581L153.724 211.169L157.551 207.895L163.733 203.845C162.938 202.076 157.065 188.559 161.805 186.035C162.347 185.719 162.95 185.524 163.574 185.463C164.197 185.402 164.827 185.477 165.419 185.683C168.234 186.687 169.819 190.396 169.878 190.536L174.369 198.994C174.729 199.362 178.413 203.208 178.358 206.443C178.359 206.907 178.264 207.366 178.078 207.791C177.893 208.216 177.622 208.598 177.281 208.912C171.188 214.653 165.835 217.926 161.623 218.518C160.887 218.628 160.141 218.645 159.401 218.571Z" fill="#001AFF"/>
<path d="M165.098 164.027C170.894 163.331 175.018 157.958 174.308 152.026C173.598 146.093 168.323 141.847 162.527 142.542C156.731 143.238 152.608 148.611 153.318 154.544C154.028 160.476 159.302 164.722 165.098 164.027Z" fill="#A0616A"/>
<path d="M191.339 145.255C189.306 143.386 188.127 140.726 186.418 138.53C184.709 136.335 181.974 134.518 179.418 135.381C177.656 135.978 176.45 137.742 175.956 139.607C175.561 141.508 175.465 143.459 175.671 145.39C175.445 143.437 174.635 141.598 173.346 140.115C172.057 138.632 170.35 137.575 168.45 137.081C166.558 136.709 164.597 136.948 162.85 137.763C161.103 138.578 159.659 139.927 158.726 141.616C157.635 140.822 156.29 140.457 154.948 140.589C153.605 140.722 152.358 141.343 151.442 142.335C150.569 143.413 150.085 144.756 150.071 146.145C150.057 147.534 150.513 148.886 151.365 149.982C152.242 151.011 153.464 151.684 154.802 151.875C156.14 152.065 157.501 151.76 158.63 151.017L159.554 151.684C159.436 152.529 159.619 153.388 160.071 154.112C160.522 154.836 161.213 155.377 162.023 155.643C163.32 155.995 165.06 155.702 165.677 156.947C166.11 157.817 165.621 158.86 165.061 159.636C164.5 160.412 163.823 161.224 163.861 162.2C163.919 163.672 165.546 164.513 166.951 164.659C168.668 164.794 170.387 164.412 171.886 163.563C173.386 162.714 174.598 161.436 175.368 159.893C175.398 159.832 175.431 159.771 175.468 159.71C176.371 158.216 176.961 156.554 177.201 154.824C177.441 153.094 177.326 151.333 176.863 149.649C176.676 148.989 176.724 148.474 177.168 148.26C179.091 147.329 184.882 148.103 186.738 149.207C188.595 150.311 190.164 151.879 191.969 153.075C193.774 154.271 195.989 155.095 198.023 154.466C198.836 154.165 199.58 153.704 200.212 153.11C200.844 152.516 201.35 151.801 201.702 151.008C202.419 149.387 202.894 147.669 203.111 145.91C201.365 147.154 199.248 147.767 197.109 147.648C194.969 147.528 192.933 146.684 191.336 145.253L191.339 145.255Z" fill="#090814"/>
<path d="M192.937 215.67L192.932 215.663L192.937 215.678V215.67Z" fill="#2F2E41"/>
<path d="M286.404 129.613C281.856 130.312 277.203 129.644 273.033 127.694C268.864 125.745 265.366 122.601 262.981 118.661C260.596 114.721 259.432 110.162 259.635 105.559C259.838 100.956 261.4 96.517 264.123 92.803C266.846 89.089 270.607 86.2669 274.932 84.6935C279.257 83.1201 283.95 82.8661 288.419 83.9636C292.888 85.0611 296.932 87.4609 300.039 90.8594C303.145 94.2579 305.176 98.5026 305.873 103.057C306.809 109.163 305.283 115.392 301.632 120.372C297.98 125.353 292.503 128.677 286.404 129.613ZM279.519 84.659C275.187 85.3241 271.15 87.2604 267.917 90.2231C264.684 93.1858 262.402 97.0417 261.358 101.303C260.314 105.565 260.556 110.041 262.052 114.165C263.549 118.289 266.233 121.876 269.766 124.473C273.299 127.069 277.521 128.558 281.899 128.752C286.277 128.946 290.614 127.835 294.362 125.561C298.11 123.287 301.1 119.951 302.954 115.975C304.808 111.999 305.443 107.562 304.779 103.225C303.888 97.4089 300.726 92.1855 295.989 88.7038C291.252 85.222 285.327 83.767 279.519 84.659Z" fill="#3F3D56"/>
<path d="M287.396 94.2355C288.929 94.0049 290.49 94.3909 291.74 95.3091C292.989 96.2274 293.824 97.6033 294.064 99.1364L295.836 110.712C296.067 112.246 295.681 113.81 294.764 115.061C293.847 116.311 292.473 117.148 290.942 117.388L279.381 119.161C277.848 119.392 276.287 119.006 275.038 118.088C273.789 117.169 272.953 115.794 272.714 114.26L270.941 102.685C270.711 101.151 271.096 99.5871 272.013 98.3363C272.93 97.0855 274.304 96.2488 275.836 96.0091L287.396 94.2342M287.042 91.919L275.481 93.6939C273.338 94.0299 271.414 95.2014 270.131 96.9526C268.847 98.7037 268.308 100.892 268.631 103.04L270.403 114.616C270.739 116.762 271.909 118.688 273.658 119.973C275.407 121.258 277.592 121.798 279.738 121.475L291.298 119.7C293.442 119.364 295.365 118.192 296.649 116.441C297.932 114.69 298.471 112.501 298.149 110.353L296.376 98.7786C296.04 96.6326 294.87 94.7068 293.121 93.4217C291.373 92.1365 289.187 91.5965 287.042 91.9196V91.919Z" fill="white"/>
<path d="M290.017 99.7577C289.553 99.7566 289.109 99.5714 288.782 99.2426C288.455 98.9137 288.271 98.4683 288.271 98.0041C288.272 97.5399 288.457 97.0948 288.785 96.7668C289.113 96.4387 289.557 96.2544 290.021 96.2544C290.484 96.2544 290.929 96.4387 291.257 96.7668C291.585 97.0948 291.77 97.5399 291.77 98.0041C291.771 98.4683 291.587 98.9137 291.26 99.2426C290.933 99.5714 290.488 99.7566 290.025 99.7577H290.017Z" fill="white"/>
<path d="M282.678 102.065C283.592 101.925 284.528 102.059 285.366 102.451C286.205 102.843 286.908 103.476 287.388 104.268C287.868 105.06 288.102 105.977 288.061 106.903C288.02 107.829 287.706 108.721 287.158 109.468C286.611 110.215 285.854 110.783 284.985 111.099C284.115 111.416 283.171 111.467 282.272 111.246C281.373 111.025 280.56 110.543 279.935 109.859C279.311 109.176 278.902 108.322 278.762 107.406C278.669 106.798 278.696 106.178 278.843 105.58C278.989 104.983 279.251 104.42 279.615 103.924C279.979 103.428 280.436 103.009 280.962 102.69C281.487 102.371 282.07 102.159 282.678 102.065ZM282.323 99.7502C280.951 99.9609 279.672 100.574 278.648 101.513C277.625 102.451 276.902 103.672 276.571 105.022C276.241 106.371 276.317 107.789 276.791 109.095C277.265 110.401 278.115 111.537 279.234 112.36C280.353 113.182 281.69 113.654 283.077 113.715C284.463 113.777 285.837 113.425 287.024 112.705C288.211 111.984 289.158 110.928 289.745 109.669C290.332 108.41 290.534 107.004 290.323 105.631C290.184 104.719 289.866 103.843 289.388 103.054C288.911 102.265 288.282 101.577 287.54 101.031C286.797 100.485 285.954 100.091 285.058 99.8712C284.163 99.6514 283.234 99.6103 282.323 99.7502Z" fill="white"/>
<path d="M493.792 115.32C489.243 116.019 484.59 115.351 480.421 113.401C476.252 111.452 472.754 108.309 470.369 104.368C467.984 100.428 466.819 95.8686 467.023 91.2659C467.226 86.6631 468.788 82.2241 471.511 78.5101C474.233 74.7961 477.995 71.9739 482.32 70.4005C486.645 68.8271 491.338 68.5731 495.807 69.6706C500.276 70.7681 504.32 73.1679 507.426 76.5664C510.533 79.9649 512.564 84.2096 513.261 88.7636C514.197 94.8703 512.671 101.099 509.019 106.079C505.368 111.06 499.891 114.384 493.792 115.32ZM486.903 70.3653C482.572 71.0305 478.534 72.9668 475.302 75.9295C472.069 78.8922 469.786 82.7481 468.742 87.0097C467.699 91.2713 467.94 95.7471 469.437 99.8712C470.933 103.995 473.618 107.582 477.151 110.179C480.683 112.775 484.906 114.265 489.284 114.458C493.662 114.652 497.999 113.542 501.746 111.267C505.494 108.993 508.484 105.657 510.338 101.681C512.192 97.7054 512.828 93.2684 512.163 88.9312C511.272 83.1153 508.111 77.8919 503.373 74.4101C498.636 70.9284 492.712 69.4734 486.903 70.3653Z" fill="#3F3D56"/>
<path d="M488.79 77.2612C485.327 77.7932 482.153 79.5021 479.8 82.1008C477.447 84.6995 476.059 88.0297 475.869 91.5321C475.679 95.0345 476.699 98.4957 478.756 101.334C480.814 104.173 483.784 106.216 487.169 107.121C486.928 105.969 486.837 104.791 486.901 103.616C487.002 102.344 487.579 95.088 487.579 95.088C487.135 94.3868 486.845 93.5986 486.729 92.776C486.386 90.5385 487.423 88.6678 489.039 88.4199C490.412 88.209 491.229 89.1388 491.419 90.3728C491.63 91.755 491.065 93.9524 490.906 95.9376C490.871 96.306 490.922 96.6776 491.056 97.0225C491.191 97.3673 491.404 97.6757 491.679 97.9228C491.955 98.1699 492.284 98.3487 492.641 98.445C492.998 98.5412 493.372 98.5521 493.734 98.4768C496.589 98.0387 497.951 94.0689 497.284 89.7147C496.777 86.405 494.17 84.2735 490.124 84.8947C489.15 85.0053 488.209 85.3131 487.357 85.7994C486.505 86.2857 485.762 86.9404 485.171 87.7236C484.58 88.5068 484.154 89.4022 483.919 90.3553C483.685 91.3085 483.647 92.2994 483.806 93.2678C483.926 94.3507 484.443 95.3507 485.256 96.0742C485.392 96.1552 485.498 96.2773 485.56 96.4227C485.622 96.5682 485.636 96.7296 485.6 96.8837C485.569 97.1716 485.509 97.8633 485.476 98.1448C485.476 98.2283 485.456 98.3105 485.417 98.3845C485.379 98.4585 485.323 98.5223 485.255 98.5705C485.187 98.6188 485.108 98.65 485.026 98.6617C484.943 98.6735 484.859 98.6653 484.78 98.6379C482.541 98.0989 481.205 95.9441 480.807 93.3422C480.15 89.0554 482.977 83.3572 490.14 82.2572C495.896 81.3733 500.325 84.9639 501.011 89.4397C501.916 95.365 499.304 100.292 494.457 101.037C492.827 101.287 491.164 100.639 490.486 99.7211C490.486 99.7211 490.144 103.334 490.058 104.036C489.886 105.235 489.542 106.403 489.039 107.505C491.207 107.799 493.412 107.623 495.506 106.988C497.6 106.354 499.533 105.277 501.174 103.829C502.815 102.381 504.127 100.597 505.019 98.5971C505.911 96.5974 506.364 94.429 506.346 92.2388C506.328 90.0487 505.839 87.888 504.914 85.9033C503.989 83.9186 502.649 82.1563 500.984 80.7358C499.319 79.3153 497.368 78.2699 495.264 77.6704C493.16 77.0709 490.952 76.9313 488.79 77.2612Z" fill="white"/>
<path d="M389.433 46.3236C384.885 47.0219 380.232 46.3542 376.063 44.4048C371.894 42.4555 368.396 39.312 366.011 35.3719C363.626 31.4318 362.461 26.872 362.665 22.2693C362.868 17.6665 364.43 13.2275 367.152 9.51347C369.875 5.79946 373.637 2.97732 377.962 1.40391C382.286 -0.169495 386.98 -0.423496 391.449 0.674028C395.918 1.77155 399.961 4.1713 403.068 7.56983C406.175 10.9683 408.206 15.213 408.903 19.767C409.838 25.8737 408.313 32.1024 404.661 37.0827C401.01 42.063 395.532 45.3871 389.433 46.3236ZM382.548 1.36939C378.217 2.03446 374.179 3.97078 370.946 6.93347C367.714 9.89617 365.431 13.7522 364.387 18.0138C363.343 22.2755 363.585 26.7514 365.082 30.8756C366.578 34.9997 369.263 38.5869 372.796 41.1833C376.328 43.7798 380.551 45.269 384.929 45.4626C389.307 45.6562 393.644 44.5456 397.392 42.271C401.14 39.9965 404.13 36.6603 405.984 32.6843C407.837 28.7083 408.472 24.2712 407.808 19.934C406.917 14.118 403.755 8.89466 399.018 5.4129C394.281 1.93113 388.356 0.476178 382.548 1.3681L382.548 1.36939Z" fill="#3F3D56"/>
<path d="M397.865 12.1844L377.554 9.18783C377.295 9.13638 377.029 9.13661 376.77 9.18851C376.512 9.24041 376.266 9.34295 376.047 9.49025C375.828 9.63755 375.64 9.82671 375.494 10.0469C375.348 10.267 375.248 10.5138 375.197 10.7732V10.7822L372.198 31.1651C372.132 31.7153 372.278 32.2702 372.608 32.7155C372.937 33.1608 373.425 33.4628 373.97 33.5592L394.275 36.5552C394.813 36.6137 395.352 36.4575 395.776 36.1205C396.199 35.7835 396.473 35.2928 396.537 34.755L399.536 14.3722C399.577 14.1275 399.568 13.8773 399.512 13.6358C399.455 13.3943 399.352 13.1664 399.208 12.9649C399.063 12.7634 398.881 12.5924 398.67 12.4616C398.46 12.3308 398.226 12.2428 397.981 12.2025C397.941 12.1943 397.902 12.1883 397.865 12.1844ZM380.029 30.3057L376.542 29.7913L378.14 18.9373L381.626 19.4517L380.029 30.3057ZM380.246 17.5623L380.221 17.5584C379.72 17.4779 379.272 17.202 378.974 16.7912C378.676 16.3804 378.553 15.8682 378.632 15.3668C378.711 14.8654 378.985 14.4157 379.394 14.1162C379.804 13.8167 380.315 13.6919 380.816 13.7691C381.317 13.8463 381.767 14.1192 382.067 14.528C382.368 14.9368 382.494 15.4481 382.419 15.9501C382.343 16.452 382.072 16.9035 381.665 17.2057C381.258 17.5079 380.747 17.6361 380.246 17.5623ZM392.77 32.1861L389.284 31.6717L390.157 25.7367C390.367 24.3132 390.002 23.2688 388.741 23.0837C388.346 23.0287 387.943 23.0977 387.589 23.2813C387.235 23.4649 386.946 23.754 386.763 24.1087C386.63 24.3713 386.546 24.6566 386.516 24.9499L385.606 31.132L382.12 30.6176L383.717 19.7636L387.204 20.278L386.982 21.7883C387.38 21.2854 387.906 20.8992 388.505 20.6703C389.104 20.4414 389.754 20.3784 390.385 20.4877C392.674 20.8255 394.183 22.5913 393.704 25.848L392.77 32.1861Z" fill="white"/>
<path d="M124.181 165.142C119.633 165.84 114.98 165.173 110.81 163.224C106.641 161.275 103.142 158.132 100.757 154.192C98.3718 150.252 97.207 145.692 97.41 141.089C97.6129 136.486 99.1745 132.047 101.897 128.333C104.62 124.619 108.382 121.796 112.706 120.223C117.031 118.649 121.725 118.395 126.194 119.492C130.663 120.59 134.706 122.989 137.813 126.388C140.92 129.786 142.951 134.031 143.648 138.585C144.584 144.692 143.058 150.92 139.407 155.9C135.757 160.88 130.279 164.205 124.181 165.142ZM117.296 120.187C112.964 120.853 108.927 122.789 105.694 125.752C102.461 128.714 100.179 132.57 99.1349 136.832C98.091 141.093 98.3326 145.569 99.8293 149.693C101.326 153.817 104.01 157.405 107.543 160.001C111.076 162.598 115.298 164.087 119.676 164.281C124.054 164.474 128.391 163.364 132.139 161.09C135.887 158.815 138.877 155.479 140.731 151.503C142.585 147.528 143.22 143.091 142.556 138.753C141.665 132.937 138.503 127.714 133.766 124.232C129.029 120.75 123.104 119.296 117.296 120.187Z" fill="#3F3D56"/>
<path fill-rule="evenodd" clip-rule="evenodd" d="M135.701 139.897C135.26 137.021 134.005 134.331 132.085 132.147C130.164 129.962 127.659 128.375 124.866 127.571C122.072 126.768 119.107 126.783 116.322 127.615C113.537 128.447 111.048 130.06 109.15 132.264C107.252 134.468 106.024 137.17 105.613 140.051C105.201 142.931 105.622 145.87 106.827 148.518C108.031 151.167 109.968 153.414 112.408 154.995C114.849 156.575 117.69 157.423 120.597 157.436L118.986 146.919L115.168 147.505L114.501 143.153L118.319 142.567L117.81 139.25C117.232 135.478 119.158 133.049 122.592 132.521C123.722 132.363 124.862 132.289 126.003 132.298L126.571 136.003L124.674 136.294C122.808 136.58 122.401 137.83 122.584 139.022L123.016 141.846L127.185 141.206V145.66L123.682 146.198L125.293 156.716C128.743 155.612 131.686 153.311 133.594 150.228C135.501 147.145 136.247 143.481 135.698 139.897L135.701 139.897Z" fill="white"/>
<path d="M502.955 274.247L498.684 267.375L497.831 271.302C497.682 271.99 497.532 272.688 497.394 273.381C496.181 272.346 494.89 271.385 493.627 270.464C489.75 267.646 485.874 264.825 482 262L483.213 269.044C483.961 273.379 484.742 277.807 486.592 281.773C486.797 282.222 487.019 282.666 487.257 283.099H505.282C505.427 282.697 505.527 282.28 505.581 281.856C505.585 281.829 505.587 281.801 505.586 281.773C505.869 279.085 504.384 276.548 502.955 274.247Z" fill="#F0F0F0"/>
<path d="M516.426 283.982L363.68 284.152C363.592 284.155 363.504 284.14 363.422 284.108C363.339 284.076 363.264 284.028 363.201 283.966C363.137 283.904 363.087 283.831 363.052 283.749C363.018 283.668 363 283.58 363 283.492C363 283.403 363.018 283.316 363.052 283.234C363.087 283.153 363.137 283.079 363.201 283.017C363.264 282.956 363.339 282.907 363.422 282.876C363.504 282.844 363.592 282.829 363.68 282.831L516.426 282.661C516.598 282.667 516.76 282.738 516.879 282.862C516.999 282.985 517.065 283.15 517.065 283.321C517.065 283.493 516.999 283.658 516.879 283.781C516.76 283.905 516.598 283.976 516.426 283.982Z" fill="#E6E6E6"/>
<path d="M417.563 103.875H427.534V113.576L417.563 112.411V103.875Z" fill="#ED9DA0"/>
<path d="M395.805 255.727L405.974 258.457L399.659 272.871L391.781 270.756L395.805 255.727Z" fill="#ED9DA0"/>
<path d="M390.936 278.602L407.508 283.05C408.934 283.432 410.428 283.49 411.879 283.219L415.328 282.569C415.708 282.497 416.057 282.311 416.328 282.036C416.6 281.76 416.781 281.408 416.847 281.027C416.914 280.646 416.863 280.253 416.701 279.902C416.538 279.551 416.273 279.257 415.94 279.061L410.103 275.621L402.087 267.295C401.611 268.263 399.618 269.519 399.554 269.602C398.109 270.574 396.816 270.853 395.712 270.433C393.787 269.702 393.085 267.061 393.077 267.033L393.071 267.013L393.051 267.007C392.847 266.962 392.636 266.963 392.434 267.012C392.231 267.061 392.043 267.156 391.883 267.29C391.442 267.804 391.215 268.468 391.246 269.145C390.564 269.529 389.528 272.421 389.446 272.657C389.029 272.865 388.66 273.156 388.361 273.514C388.061 273.871 387.839 274.286 387.707 274.733C387.653 275.102 387.677 275.479 387.778 275.838C387.88 276.197 388.056 276.53 388.295 276.816C388.946 277.696 389.877 278.326 390.934 278.603L390.936 278.602Z" fill="#090814"/>
<path d="M420.935 260.136H431.462L429.09 275.694H420.935V260.136Z" fill="#ED9DA0"/>
<path d="M408.394 172.21C408.394 172.21 404.988 202.569 403.946 205.003C402.903 207.437 396.304 240.476 396.304 240.476L394.22 260.299C394.915 262.386 404.64 262.734 406.03 262.386C407.419 262.039 420.965 213.001 420.965 213.001C420.965 213.001 420.271 260.302 420.271 262.386C420.271 264.47 429.649 263.429 431.732 263.429C433.816 263.429 446.59 174.774 446.59 174.774L408.394 172.21Z" fill="#090814"/>
<path d="M423.047 107.276C428.994 107.276 433.815 102.449 433.815 96.4953C433.815 90.5411 428.994 85.7144 423.047 85.7144C417.101 85.7144 412.28 90.5411 412.28 96.4953C412.28 102.449 417.101 107.276 423.047 107.276Z" fill="#ED9DA0"/>
<path d="M410.815 162.036C409.07 161.47 407.972 159.75 406.523 150.465L406.516 150.408L405.198 138.86L403.281 131.19C401.811 125.287 403.636 119.048 412.484 114.167L417.868 108.973L427.506 109.647L429.527 111.821C435.38 116.624 436.769 114.539 443.369 123.58L438.643 136.045L441.286 157.753C443.666 160.403 447.996 176.114 447.796 176.25C445.936 177.511 437.529 179.418 432.98 177.595C428.133 175.654 407.661 174.625 407.661 174.625C407.661 174.625 410.104 163.567 410.815 162.036Z" fill="#001AFF"/>
<path d="M403.112 134.878L412.065 133.123C415.376 138.074 417.154 151.612 417.154 151.612L427.052 172.166C427.661 172.536 428.16 173.061 428.5 173.688C428.84 174.314 429.008 175.019 428.987 175.732C428.966 176.444 428.757 177.139 428.381 177.744C428.005 178.349 427.475 178.844 426.846 179.177C426.217 179.511 425.511 179.672 424.8 179.643C424.088 179.615 423.397 179.398 422.797 179.015C422.196 178.632 421.708 178.096 421.381 177.463C421.055 176.829 420.902 176.121 420.938 175.409L408.028 151.055L403.112 134.878Z" fill="#ED9DA0"/>
<path d="M403.061 137.005C403.061 137.005 401.049 128.847 403.862 123.398C406.674 117.95 411.542 114.689 414.311 115.212C416.148 115.573 417.78 116.619 418.877 118.139C419.974 119.658 420.454 121.538 420.219 123.398C419.504 129.04 417.881 136.1 414.209 137.699L414.172 137.715L417.979 151.044L403.862 153.019L403.061 137.005Z" fill="#001AFF"/>
<path d="M460.827 125.741C460.827 125.741 447.468 123 441.713 124.512L440.444 133.557L456.739 135.006L484.552 129.944C485.213 130.205 485.932 130.287 486.634 130.181C487.337 130.075 487.999 129.784 488.554 129.339C489.108 128.894 489.535 128.31 489.791 127.646C490.047 126.982 490.123 126.262 490.011 125.559C489.9 124.856 489.604 124.196 489.155 123.644C488.706 123.092 488.119 122.67 487.454 122.419C486.789 122.168 486.069 122.098 485.368 122.215C484.667 122.333 484.01 122.634 483.463 123.088L460.827 125.741Z" fill="#ED9DA0"/>
<path d="M444.651 135.679L431.422 134.218L426.374 129.309C425.387 128.341 424.689 127.117 424.36 125.773C424.031 124.43 424.084 123.021 424.513 121.706C425.107 119.927 426.352 118.441 427.999 117.546C429.645 116.652 431.569 116.418 433.381 116.889C438.874 118.325 447.814 121.304 450.905 124.508L460.615 125.238V136.977L444.651 135.679Z" fill="#001AFF"/>
<path d="M410.835 89.4113C411.424 88.4606 412.269 87.6961 413.274 87.2059C414.279 86.7158 415.401 86.52 416.512 86.6412C416.717 85.2362 417.303 83.9143 418.206 82.8196C419.11 81.7248 420.295 80.899 421.635 80.432C422.974 79.9649 424.416 79.8746 425.803 80.1708C427.19 80.4669 428.469 81.1382 429.501 82.1117C429.841 81.8725 430.236 81.725 430.649 81.6837C431.062 81.6423 431.479 81.7084 431.859 81.8755C432.616 82.2201 433.275 82.7494 433.775 83.4149C435.037 84.9908 435.848 86.88 436.123 88.8812C436.398 90.8824 436.126 92.9208 435.336 94.7795C435.605 93.8011 434.625 92.8803 433.636 92.6609C432.646 92.4416 431.608 92.6493 430.605 92.5063C429.319 92.3232 428.162 91.5758 426.874 91.4063C425.782 91.3352 424.687 91.4763 423.648 91.8217C422.609 92.1669 421.515 92.3139 420.422 92.2552C419.338 92.1258 417.941 96.2399 417.96 99.1375C417.963 99.6869 417.851 100.392 417.314 100.508C416.654 100.652 416.271 99.7393 415.643 99.4908C415.354 99.4079 415.043 99.4408 414.778 99.5823C414.512 99.7239 414.311 99.9631 414.218 100.25C414.139 100.541 414.13 100.848 414.193 101.143C414.256 101.439 414.388 101.715 414.58 101.949C414.966 102.413 415.424 102.811 415.937 103.128L415.678 103.343C415.433 103.603 415.105 103.77 414.75 103.814C414.395 103.858 414.037 103.777 413.735 103.585C413.142 103.183 412.662 102.636 412.34 101.995C411.127 100.118 410.261 98.0382 409.781 95.8549C409.308 93.6508 409.685 91.3494 410.835 89.4113Z" fill="#090814"/>
<path d="M422.146 283.491H439.301C440.777 283.49 442.234 283.158 443.566 282.52L446.729 280.998C447.077 280.831 447.366 280.561 447.557 280.224C447.748 279.888 447.832 279.501 447.797 279.115C447.763 278.73 447.612 278.364 447.365 278.067C447.117 277.77 446.785 277.555 446.413 277.452L439.885 275.644L429.973 269.847C429.764 270.905 428.182 272.469 428.141 272.564C426.997 273.877 425.82 274.482 424.646 274.363C422.598 274.156 421.236 271.787 421.221 271.763L421.211 271.745H421.189C420.981 271.753 420.778 271.809 420.595 271.909C420.412 272.009 420.255 272.15 420.135 272.32C419.842 272.931 419.794 273.631 420 274.277C419.44 274.825 419.188 277.887 419.169 278.135C418.82 278.443 418.539 278.82 418.342 279.243C418.145 279.665 418.037 280.123 418.025 280.589C418.068 280.959 418.189 281.316 418.38 281.636C418.57 281.956 418.826 282.232 419.131 282.446C419.986 283.128 421.049 283.496 422.142 283.49L422.146 283.491Z" fill="#090814"/>
<path d="M183.373 76.8304C178.825 77.5288 174.172 76.8611 170.002 74.9117C165.833 72.9623 162.335 69.8188 159.95 65.8787C157.565 61.9386 156.401 57.3789 156.604 52.7761C156.807 48.1734 158.369 43.7343 161.092 40.0203C163.815 36.3063 167.576 33.4842 171.901 31.9107C176.226 30.3373 180.919 30.0833 185.388 31.1809C189.857 32.2784 193.901 34.6781 197.008 38.0767C200.114 41.4752 202.145 45.7198 202.842 50.2738C203.778 56.3806 202.252 62.6092 198.601 67.5895C194.949 72.5699 189.472 75.8939 183.373 76.8304ZM176.488 31.8762C172.156 32.5414 168.119 34.4777 164.886 37.4404C161.653 40.4031 159.371 44.259 158.327 48.5206C157.283 52.7822 157.525 57.258 159.021 61.3821C160.518 65.5062 163.202 69.0933 166.735 71.6898C170.268 74.2863 174.49 75.7756 178.868 75.9694C183.246 76.1631 187.583 75.0526 191.331 72.7783C195.079 70.5039 198.069 67.1679 199.923 63.1921C201.777 59.2163 202.412 54.7793 201.748 50.4421C200.857 44.6262 197.695 39.4028 192.957 35.9212C188.22 32.4395 182.296 30.9848 176.487 31.8769L176.488 31.8762Z" fill="#3F3D56"/>
<path d="M186.45 43.2646H189.988L182.219 52.1224L191.296 64.1386H184.172L178.595 56.8364L172.21 64.1386H168.671L176.903 54.6648L168.21 43.2646H175.512L180.553 49.9353L186.45 43.2646ZM185.211 62.0589H187.172L174.478 45.2673H172.372L185.211 62.0589Z" fill="white"/>
</g>
<defs>
<clipPath id="clip0_760_41">
<rect width="517" height="287" fill="white"/>
</clipPath>
</defs>
</svg>
