<svg width="495" height="404" viewBox="0 0 495 404" fill="none" xmlns="http://www.w3.org/2000/svg">
<path d="M247.404 403.889C384.041 403.889 494.807 397.422 494.807 389.444C494.807 381.467 384.041 375 247.404 375C110.766 375 0 381.467 0 389.444C0 397.422 110.766 403.889 247.404 403.889Z" fill="#000B32"/>
<path d="M428.884 278.398L426.702 261.44C426.374 258.916 425.14 256.598 423.229 254.917C421.318 253.236 418.861 252.307 416.316 252.303H359.789C357.244 252.306 354.786 251.381 352.874 249.701C350.963 248.022 349.728 245.704 349.402 243.18L337.676 152.227C337.483 150.752 337.608 149.253 338.041 147.83C338.475 146.407 339.207 145.092 340.189 143.975C341.171 142.858 342.38 141.963 343.736 141.351C345.091 140.738 346.562 140.422 348.05 140.424H399.166C400.655 140.424 402.125 140.106 403.481 139.492C404.837 138.878 406.046 137.982 407.028 136.864C408.009 135.746 408.741 134.431 409.175 133.007C409.608 131.583 409.733 130.084 409.54 128.608L407.371 111.637C407.045 109.114 405.811 106.795 403.899 105.116C401.987 103.437 399.529 102.512 396.984 102.514H340.47C337.926 102.513 335.469 101.584 333.56 99.9028C331.65 98.2212 330.419 95.9015 330.096 93.3777L319.225 9.16168C318.899 6.63681 317.666 4.31689 315.754 2.6355C313.842 0.95411 311.384 0.0263156 308.838 0.0255157H292.046C290.558 0.0259834 289.086 0.343691 287.73 0.957458C286.374 1.57122 285.164 2.46696 284.181 3.58498C283.198 4.70301 282.465 6.01764 282.03 7.44129C281.596 8.86495 281.469 10.3649 281.66 11.8413L291.867 90.6726C292.058 92.1489 291.931 93.6489 291.497 95.0725C291.062 96.4962 290.329 97.8108 289.346 98.9289C288.363 100.047 287.153 100.943 285.797 101.556C284.441 102.17 282.969 102.488 281.481 102.488H144.604C142.06 102.487 139.603 101.559 137.694 99.8773C135.784 98.1957 134.553 95.876 134.23 93.3522L123.359 9.13616C123.036 6.61236 121.805 4.29262 119.896 2.61101C117.986 0.929408 115.529 0.00117335 112.985 0H96.1929C94.7043 0.000467677 93.2329 0.318166 91.8768 0.931932C90.5206 1.5457 89.3108 2.44143 88.328 3.55946C87.3452 4.67748 86.612 5.99212 86.1772 7.41578C85.7423 8.83943 85.6159 10.3394 85.8063 11.8158L96.0143 90.647C96.2046 92.1234 96.0782 93.6234 95.6434 95.047C95.2085 96.4707 94.4753 97.7853 93.4925 98.9033C92.5097 100.021 91.2999 100.917 89.9437 101.531C88.5876 102.145 87.1162 102.462 85.6276 102.463H34.4728C32.9848 102.461 31.5136 102.777 30.1575 103.39C28.8013 104.002 27.5913 104.897 26.6083 106.014C25.6253 107.131 24.8919 108.445 24.4569 109.868C24.022 111.291 23.8956 112.79 24.0861 114.266L26.2808 131.224C26.6038 133.75 27.8369 136.071 29.749 137.753C31.6611 139.435 34.121 140.362 36.6675 140.36H93.1815C95.7261 140.358 98.1844 141.283 100.096 142.962C102.008 144.641 103.242 146.96 103.568 149.483L115.307 240.437C115.498 241.912 115.371 243.412 114.937 244.835C114.502 246.258 113.768 247.572 112.785 248.689C111.802 249.806 110.592 250.7 109.236 251.313C107.88 251.925 106.409 252.241 104.921 252.24H53.8042C52.3156 252.24 50.8442 252.558 49.4881 253.172C48.1319 253.785 46.9221 254.681 45.9393 255.799C44.9565 256.917 44.2233 258.232 43.7884 259.655C43.3536 261.079 43.2271 262.579 43.4175 264.055L45.6123 281.013C45.9349 283.537 47.1662 285.857 49.0756 287.539C50.9851 289.22 53.4418 290.148 55.9861 290.15H112.513C115.058 290.147 117.516 291.072 119.428 292.752C121.339 294.431 122.574 296.749 122.9 299.273L133.758 383.489C134.084 386.014 135.318 388.334 137.229 390.015C139.141 391.697 141.599 392.624 144.145 392.625H160.937C162.426 392.625 163.897 392.307 165.253 391.693C166.609 391.079 167.819 390.184 168.802 389.066C169.785 387.948 170.518 386.633 170.953 385.209C171.388 383.786 171.514 382.286 171.324 380.809L161.116 301.978C160.941 300.508 161.079 299.018 161.523 297.605C161.967 296.193 162.705 294.891 163.689 293.785C164.673 292.679 165.881 291.794 167.232 291.19C168.583 290.585 170.048 290.274 171.528 290.277H308.366C310.906 290.267 313.362 291.18 315.278 292.847C317.194 294.514 318.438 296.82 318.778 299.337L329.637 383.553C329.963 386.078 331.197 388.398 333.108 390.079C335.02 391.76 337.478 392.688 340.024 392.689H356.816C358.304 392.689 359.775 392.371 361.131 391.757C362.486 391.143 363.695 390.247 364.677 389.129C365.659 388.011 366.391 386.696 366.824 385.272C367.258 383.849 367.382 382.349 367.19 380.873L356.982 302.042C356.791 300.566 356.918 299.067 357.353 297.644C357.788 296.221 358.521 294.907 359.504 293.79C360.487 292.673 361.697 291.778 363.053 291.166C364.409 290.554 365.88 290.238 367.368 290.239H418.485C419.977 290.241 421.452 289.924 422.812 289.309C424.172 288.695 425.385 287.797 426.369 286.676C427.354 285.555 428.087 284.236 428.521 282.809C428.955 281.381 429.079 279.877 428.884 278.398ZM153.549 243.18L141.823 152.227C141.632 150.752 141.758 149.254 142.193 147.832C142.627 146.41 143.359 145.096 144.341 143.98C145.322 142.863 146.531 141.968 147.885 141.355C149.24 140.742 150.71 140.424 152.197 140.424H289.035C291.579 140.421 294.038 141.347 295.949 143.026C297.861 144.705 299.096 147.024 299.421 149.547L311.122 240.513C311.313 241.989 311.186 243.488 310.751 244.911C310.317 246.334 309.583 247.648 308.6 248.765C307.617 249.882 306.407 250.777 305.051 251.389C303.695 252.002 302.224 252.318 300.736 252.316H163.936C161.39 252.315 158.932 251.388 157.02 249.706C155.109 248.025 153.875 245.705 153.549 243.18Z" fill="url(#paint0_linear_621_632)"/>
<path opacity="0.4" d="M428.884 278.398L426.702 261.44C426.374 258.916 425.14 256.598 423.229 254.917C421.318 253.236 418.861 252.307 416.316 252.303H359.789C357.244 252.306 354.786 251.381 352.874 249.701C350.963 248.022 349.728 245.704 349.402 243.18L337.676 152.227C337.483 150.752 337.608 149.253 338.041 147.83C338.475 146.407 339.207 145.092 340.189 143.975C341.171 142.858 342.38 141.963 343.736 141.351C345.091 140.738 346.562 140.422 348.05 140.424H399.166C400.655 140.424 402.125 140.106 403.481 139.492C404.837 138.878 406.046 137.982 407.028 136.864C408.009 135.746 408.741 134.431 409.175 133.007C409.608 131.583 409.733 130.084 409.54 128.608L407.371 111.637C407.045 109.114 405.811 106.795 403.899 105.116C401.987 103.437 399.529 102.512 396.984 102.514H340.47C337.926 102.513 335.469 101.584 333.56 99.9028C331.65 98.2212 330.419 95.9015 330.096 93.3777L319.225 9.16168C318.899 6.63681 317.666 4.31689 315.754 2.6355C313.842 0.95411 311.384 0.0263156 308.838 0.0255157H292.046C290.558 0.0259834 289.086 0.343691 287.73 0.957458C286.374 1.57122 285.164 2.46696 284.181 3.58498C283.198 4.70301 282.465 6.01764 282.03 7.44129C281.596 8.86495 281.469 10.3649 281.66 11.8413L291.867 90.6726C292.058 92.1489 291.931 93.6489 291.497 95.0725C291.062 96.4962 290.329 97.8108 289.346 98.9289C288.363 100.047 287.153 100.943 285.797 101.556C284.441 102.17 282.969 102.488 281.481 102.488H144.604C142.06 102.487 139.603 101.559 137.694 99.8773C135.784 98.1957 134.553 95.876 134.23 93.3522L123.359 9.13616C123.036 6.61236 121.805 4.29262 119.896 2.61101C117.986 0.929408 115.529 0.00117335 112.985 0H96.1929C94.7043 0.000467677 93.2329 0.318166 91.8768 0.931932C90.5206 1.5457 89.3108 2.44143 88.328 3.55946C87.3452 4.67748 86.612 5.99212 86.1772 7.41578C85.7423 8.83943 85.6159 10.3394 85.8063 11.8158L96.0143 90.647C96.2046 92.1234 96.0782 93.6234 95.6434 95.047C95.2085 96.4707 94.4753 97.7853 93.4925 98.9033C92.5097 100.021 91.2999 100.917 89.9437 101.531C88.5876 102.145 87.1162 102.462 85.6276 102.463H34.4728C32.9848 102.461 31.5136 102.777 30.1575 103.39C28.8013 104.002 27.5913 104.897 26.6083 106.014C25.6253 107.131 24.8919 108.445 24.4569 109.868C24.022 111.291 23.8956 112.79 24.0861 114.266L26.2808 131.224C26.6038 133.75 27.8369 136.071 29.749 137.753C31.6611 139.435 34.121 140.362 36.6675 140.36H93.1815C95.7261 140.358 98.1844 141.283 100.096 142.962C102.008 144.641 103.242 146.96 103.568 149.483L115.307 240.437C115.498 241.912 115.371 243.412 114.937 244.835C114.502 246.258 113.768 247.572 112.785 248.689C111.802 249.806 110.592 250.7 109.236 251.313C107.88 251.925 106.409 252.241 104.921 252.24H53.8042C52.3156 252.24 50.8442 252.558 49.4881 253.172C48.1319 253.785 46.9221 254.681 45.9393 255.799C44.9565 256.917 44.2233 258.232 43.7884 259.655C43.3536 261.079 43.2271 262.579 43.4175 264.055L45.6123 281.013C45.9349 283.537 47.1662 285.857 49.0756 287.539C50.9851 289.22 53.4418 290.148 55.9861 290.15H112.513C115.058 290.147 117.516 291.072 119.428 292.752C121.339 294.431 122.574 296.749 122.9 299.273L133.758 383.489C134.084 386.014 135.318 388.334 137.229 390.015C139.141 391.697 141.599 392.624 144.145 392.625H160.937C162.426 392.625 163.897 392.307 165.253 391.693C166.609 391.079 167.819 390.184 168.802 389.066C169.785 387.948 170.518 386.633 170.953 385.209C171.388 383.786 171.514 382.286 171.324 380.809L161.116 301.978C160.941 300.508 161.079 299.018 161.523 297.605C161.967 296.193 162.705 294.891 163.689 293.785C164.673 292.679 165.881 291.794 167.232 291.19C168.583 290.585 170.048 290.274 171.528 290.277H308.366C310.906 290.267 313.362 291.18 315.278 292.847C317.194 294.514 318.438 296.82 318.778 299.337L329.637 383.553C329.963 386.078 331.197 388.398 333.108 390.079C335.02 391.76 337.478 392.688 340.024 392.689H356.816C358.304 392.689 359.775 392.371 361.131 391.757C362.486 391.143 363.695 390.247 364.677 389.129C365.659 388.011 366.391 386.696 366.824 385.272C367.258 383.849 367.382 382.349 367.19 380.873L356.982 302.042C356.791 300.566 356.918 299.067 357.353 297.644C357.788 296.221 358.521 294.907 359.504 293.79C360.487 292.673 361.697 291.778 363.053 291.166C364.409 290.554 365.88 290.238 367.368 290.239H418.485C419.977 290.241 421.452 289.924 422.812 289.309C424.172 288.695 425.385 287.797 426.369 286.676C427.354 285.555 428.087 284.236 428.521 282.809C428.955 281.381 429.079 279.877 428.884 278.398ZM153.549 243.18L141.823 152.227C141.632 150.752 141.758 149.254 142.193 147.832C142.627 146.41 143.359 145.096 144.341 143.98C145.322 142.863 146.531 141.968 147.885 141.355C149.24 140.742 150.71 140.424 152.197 140.424H289.035C291.579 140.421 294.038 141.347 295.949 143.026C297.861 144.705 299.096 147.024 299.421 149.547L311.122 240.513C311.313 241.989 311.186 243.488 310.751 244.911C310.317 246.334 309.583 247.648 308.6 248.765C307.617 249.882 306.407 250.777 305.051 251.389C303.695 252.002 302.224 252.318 300.736 252.316H163.936C161.39 252.315 158.932 251.388 157.02 249.706C155.109 248.025 153.875 245.705 153.549 243.18Z" fill="black"/>
<path d="M187.925 339.671L186.649 329.974L187.925 329.808L189.201 339.505L187.925 339.671ZM366.947 209.264L362.456 174.493L363.732 174.34L368.211 209.098L366.947 209.264ZM154.723 82.3786L152.898 68.4192L154.174 68.2533L155.986 82.2893L154.723 82.3786ZM151.814 59.8317L148.751 36.1363L150.027 35.9705L153.077 59.6658L151.814 59.8317Z" fill="url(#paint1_linear_621_632)"/>
<path opacity="0.3" d="M187.925 339.671L186.649 329.974L187.925 329.808L189.201 339.505L187.925 339.671ZM366.947 209.264L362.456 174.493L363.732 174.34L368.211 209.098L366.947 209.264ZM154.723 82.3786L152.898 68.4192L154.174 68.2533L155.986 82.2893L154.723 82.3786ZM151.814 59.8317L148.751 36.1363L150.027 35.9705L153.077 59.6658L151.814 59.8317Z" fill="black"/>
<path d="M447.654 278.398L445.46 261.44C445.134 258.915 443.9 256.595 441.989 254.914C440.077 253.232 437.619 252.304 435.073 252.304H378.546C376.004 252.303 373.549 251.376 371.639 249.697C369.73 248.018 368.498 245.702 368.172 243.18L356.433 152.227C356.245 150.752 356.373 149.253 356.808 147.831C357.244 146.409 357.978 145.096 358.96 143.979C359.943 142.863 361.152 141.968 362.507 141.355C363.862 140.742 365.332 140.425 366.82 140.424H417.936C419.425 140.423 420.896 140.106 422.252 139.492C423.609 138.878 424.818 137.982 425.801 136.864C426.784 135.746 427.517 134.432 427.952 133.008C428.387 131.584 428.513 130.085 428.323 128.608L426.064 111.637C425.741 109.115 424.51 106.797 422.6 105.117C420.69 103.437 418.234 102.512 415.691 102.514H359.164C356.618 102.513 354.16 101.585 352.248 99.904C350.337 98.2226 349.103 95.9027 348.777 93.3778L337.918 9.1618C337.593 6.63693 336.359 4.31701 334.447 2.63562C332.536 0.954229 330.077 0.0264346 327.532 0.0256348H310.74C309.251 0.0261024 307.78 0.34381 306.423 0.957577C305.067 1.57134 303.857 2.46708 302.875 3.5851C301.892 4.70312 301.159 6.01776 300.724 7.44141C300.289 8.86506 300.163 10.365 300.353 11.8414L310.561 90.6727C310.751 92.149 310.625 93.649 310.19 95.0727C309.755 96.4963 309.022 97.8109 308.039 98.929C307.056 100.047 305.847 100.943 304.49 101.556C303.134 102.17 301.663 102.488 300.174 102.488H163.311C160.766 102.495 158.306 101.575 156.39 99.9012C154.474 98.2271 153.233 95.9128 152.898 93.3905L142.04 9.17455C141.714 6.64968 140.48 4.32977 138.569 2.64838C136.657 0.966991 134.199 0.0391973 131.653 0.0383975H114.886C113.398 0.0386151 111.927 0.356271 110.572 0.970154C109.216 1.58404 108.007 2.48002 107.025 3.59831C106.043 4.7166 105.311 6.03146 104.878 7.45513C104.445 8.87879 104.32 10.3785 104.512 11.8542L114.72 90.6854C114.911 92.1618 114.784 93.6618 114.35 95.0854C113.915 96.5091 113.181 97.8237 112.199 98.9417C111.216 100.06 110.006 100.955 108.65 101.569C107.294 102.183 105.822 102.501 104.334 102.501H53.179C51.691 102.5 50.2198 102.816 48.8636 103.428C47.5075 104.041 46.2975 104.935 45.3145 106.052C44.3315 107.169 43.5981 108.483 43.1631 109.906C42.7282 111.329 42.6018 112.828 42.7923 114.304L44.9743 131.262C45.2999 133.787 46.5337 136.107 48.4452 137.788C50.3568 139.47 52.8151 140.398 55.3609 140.398H111.888C114.432 140.396 116.891 141.321 118.802 143C120.714 144.68 121.949 146.998 122.274 149.522L134.001 240.513C134.193 241.988 134.069 243.488 133.635 244.911C133.202 246.334 132.47 247.648 131.488 248.765C130.506 249.882 129.296 250.777 127.941 251.39C126.585 252.002 125.114 252.318 123.627 252.316H72.5104C71.0222 252.317 69.5512 252.634 68.1956 253.248C66.84 253.862 65.6309 254.758 64.6491 255.876C63.6673 256.995 62.9353 258.309 62.502 259.733C62.0687 261.157 61.9441 262.656 62.1365 264.132L64.3184 281.09C64.644 283.615 65.8779 285.935 67.7894 287.616C69.7009 289.298 72.1593 290.225 74.7051 290.226H131.206C133.75 290.224 136.206 291.15 138.116 292.829C140.026 294.509 141.257 296.827 141.58 299.35L152.452 383.566C152.777 386.091 154.011 388.41 155.923 390.092C157.834 391.773 160.293 392.701 162.838 392.702H179.694C181.183 392.701 182.654 392.384 184.01 391.77C185.367 391.156 186.576 390.26 187.559 389.142C188.542 388.024 189.275 386.71 189.71 385.286C190.145 383.862 190.271 382.362 190.081 380.886L179.873 302.055C179.682 300.579 179.809 299.08 180.244 297.657C180.679 296.234 181.412 294.92 182.395 293.803C183.378 292.686 184.588 291.791 185.944 291.179C187.3 290.566 188.772 290.25 190.26 290.252H327.072C329.615 290.253 332.07 291.179 333.979 292.858C335.888 294.537 337.121 296.854 337.446 299.375L348.318 383.591C348.64 386.115 349.872 388.435 351.781 390.116C353.691 391.798 356.147 392.726 358.692 392.727H375.484C376.972 392.727 378.444 392.409 379.8 391.795C381.156 391.182 382.366 390.286 383.349 389.168C384.331 388.05 385.065 386.735 385.5 385.312C385.934 383.888 386.061 382.388 385.87 380.912L375.662 302.08C375.472 300.606 375.598 299.107 376.032 297.685C376.467 296.263 377.199 294.95 378.18 293.833C379.162 292.716 380.37 291.821 381.725 291.208C383.08 290.595 384.549 290.278 386.036 290.277H437.166C438.669 290.293 440.158 289.984 441.531 289.373C442.905 288.762 444.131 287.863 445.126 286.736C446.121 285.609 446.862 284.281 447.298 282.842C447.734 281.403 447.856 279.888 447.654 278.398ZM172.319 243.18L160.554 152.227C160.366 150.752 160.494 149.253 160.93 147.831C161.365 146.409 162.099 145.096 163.081 143.979C164.064 142.863 165.273 141.968 166.628 141.355C167.983 140.742 169.454 140.425 170.941 140.424H307.741C310.285 140.424 312.742 141.35 314.653 143.029C316.564 144.708 317.799 147.025 318.128 149.547L329.854 240.513C330.044 241.988 329.918 243.486 329.484 244.908C329.05 246.331 328.318 247.644 327.336 248.761C326.354 249.877 325.146 250.772 323.791 251.385C322.437 251.999 320.967 252.316 319.48 252.316H182.642C180.095 252.318 177.636 251.391 175.723 249.71C173.811 248.028 172.578 245.706 172.255 243.18H172.319Z" fill="url(#paint2_linear_621_632)"/>
<path opacity="0.3" d="M447.654 278.398L445.46 261.44C445.134 258.915 443.9 256.595 441.989 254.914C440.077 253.232 437.619 252.304 435.073 252.304H378.546C376.004 252.303 373.549 251.376 371.639 249.697C369.73 248.018 368.498 245.702 368.172 243.18L356.433 152.227C356.245 150.752 356.373 149.253 356.808 147.831C357.244 146.409 357.978 145.096 358.96 143.979C359.943 142.863 361.152 141.968 362.507 141.355C363.862 140.742 365.332 140.425 366.82 140.424H417.936C419.425 140.423 420.896 140.106 422.252 139.492C423.609 138.878 424.818 137.982 425.801 136.864C426.784 135.746 427.517 134.432 427.952 133.008C428.387 131.584 428.513 130.085 428.323 128.608L426.064 111.637C425.741 109.115 424.51 106.797 422.6 105.117C420.69 103.437 418.234 102.512 415.691 102.514H359.164C356.618 102.513 354.16 101.585 352.248 99.904C350.337 98.2226 349.103 95.9027 348.777 93.3778L337.918 9.1618C337.593 6.63693 336.359 4.31701 334.447 2.63562C332.536 0.954229 330.077 0.0264346 327.532 0.0256348H310.74C309.251 0.0261024 307.78 0.34381 306.423 0.957577C305.067 1.57134 303.857 2.46708 302.875 3.5851C301.892 4.70312 301.159 6.01776 300.724 7.44141C300.289 8.86506 300.163 10.365 300.353 11.8414L310.561 90.6727C310.751 92.149 310.625 93.649 310.19 95.0727C309.755 96.4963 309.022 97.8109 308.039 98.929C307.056 100.047 305.847 100.943 304.49 101.556C303.134 102.17 301.663 102.488 300.174 102.488H163.311C160.766 102.495 158.306 101.575 156.39 99.9012C154.474 98.2271 153.233 95.9128 152.898 93.3905L142.04 9.17455C141.714 6.64968 140.48 4.32977 138.569 2.64838C136.657 0.966991 134.199 0.0391973 131.653 0.0383975H114.886C113.398 0.0386151 111.927 0.356271 110.572 0.970154C109.216 1.58404 108.007 2.48002 107.025 3.59831C106.043 4.7166 105.311 6.03146 104.878 7.45513C104.445 8.87879 104.32 10.3785 104.512 11.8542L114.72 90.6854C114.911 92.1618 114.784 93.6618 114.35 95.0854C113.915 96.5091 113.181 97.8237 112.199 98.9417C111.216 100.06 110.006 100.955 108.65 101.569C107.294 102.183 105.822 102.501 104.334 102.501H53.179C51.691 102.5 50.2198 102.816 48.8636 103.428C47.5075 104.041 46.2975 104.935 45.3145 106.052C44.3315 107.169 43.5981 108.483 43.1631 109.906C42.7282 111.329 42.6018 112.828 42.7923 114.304L44.9743 131.262C45.2999 133.787 46.5337 136.107 48.4452 137.788C50.3568 139.47 52.8151 140.398 55.3609 140.398H111.888C114.432 140.396 116.891 141.321 118.802 143C120.714 144.68 121.949 146.998 122.274 149.522L134.001 240.513C134.193 241.988 134.069 243.488 133.635 244.911C133.202 246.334 132.47 247.648 131.488 248.765C130.506 249.882 129.296 250.777 127.941 251.39C126.585 252.002 125.114 252.318 123.627 252.316H72.5104C71.0222 252.317 69.5512 252.634 68.1956 253.248C66.84 253.862 65.6309 254.758 64.6491 255.876C63.6673 256.995 62.9353 258.309 62.502 259.733C62.0687 261.157 61.9441 262.656 62.1365 264.132L64.3184 281.09C64.644 283.615 65.8779 285.935 67.7894 287.616C69.7009 289.298 72.1593 290.225 74.7051 290.226H131.206C133.75 290.224 136.206 291.15 138.116 292.829C140.026 294.509 141.257 296.827 141.58 299.35L152.452 383.566C152.777 386.091 154.011 388.41 155.923 390.092C157.834 391.773 160.293 392.701 162.838 392.702H179.694C181.183 392.701 182.654 392.384 184.01 391.77C185.367 391.156 186.576 390.26 187.559 389.142C188.542 388.024 189.275 386.71 189.71 385.286C190.145 383.862 190.271 382.362 190.081 380.886L179.873 302.055C179.682 300.579 179.809 299.08 180.244 297.657C180.679 296.234 181.412 294.92 182.395 293.803C183.378 292.686 184.588 291.791 185.944 291.179C187.3 290.566 188.772 290.25 190.26 290.252H327.072C329.615 290.253 332.07 291.179 333.979 292.858C335.888 294.537 337.121 296.854 337.446 299.375L348.318 383.591C348.64 386.115 349.872 388.435 351.781 390.116C353.691 391.798 356.147 392.726 358.692 392.727H375.484C376.972 392.727 378.444 392.409 379.8 391.795C381.156 391.182 382.366 390.286 383.349 389.168C384.331 388.05 385.065 386.735 385.5 385.312C385.934 383.888 386.061 382.388 385.87 380.912L375.662 302.08C375.472 300.606 375.598 299.107 376.032 297.685C376.466 296.263 377.199 294.95 378.18 293.833C379.162 292.716 380.37 291.821 381.725 291.208C383.08 290.595 384.549 290.278 386.036 290.277H437.166C438.669 290.293 440.158 289.984 441.531 289.373C442.905 288.762 444.131 287.862 445.126 286.736C446.121 285.609 446.862 284.281 447.298 282.842C447.734 281.403 447.856 279.888 447.654 278.398ZM172.319 243.18L160.554 152.227C160.366 150.752 160.494 149.253 160.93 147.831C161.365 146.409 162.099 145.096 163.081 143.979C164.064 142.863 165.273 141.968 166.628 141.355C167.983 140.742 169.454 140.425 170.941 140.424H307.741C310.285 140.424 312.742 141.35 314.653 143.029C316.564 144.708 317.799 147.025 318.128 149.547L329.854 240.513C330.044 241.988 329.918 243.486 329.484 244.908C329.05 246.331 328.318 247.644 327.336 248.761C326.354 249.878 325.146 250.772 323.791 251.385C322.437 251.999 320.967 252.316 319.48 252.316H182.642C180.095 252.318 177.636 251.391 175.723 249.71C173.811 248.028 172.578 245.706 172.255 243.18H172.319Z" fill="black"/>
<path d="M375.484 388.989H358.692C357.04 388.987 355.445 388.383 354.205 387.291C352.965 386.2 352.165 384.694 351.954 383.055L341.083 298.839C340.637 295.431 338.967 292.302 336.385 290.034C333.802 287.766 330.484 286.515 327.047 286.513H190.234C188.223 286.511 186.235 286.938 184.402 287.765C182.57 288.593 180.934 289.801 179.606 291.311C178.278 292.821 177.286 294.596 176.699 296.519C176.111 298.442 175.94 300.469 176.198 302.463L186.406 381.294C186.53 382.253 186.447 383.226 186.164 384.15C185.881 385.074 185.404 385.927 184.765 386.651C184.126 387.376 183.34 387.956 182.459 388.353C181.578 388.749 180.622 388.953 179.656 388.95H162.851C161.197 388.951 159.599 388.35 158.356 387.257C157.114 386.165 156.312 384.658 156.101 383.017L145.242 298.801C144.791 295.395 143.12 292.269 140.539 290.002C137.958 287.735 134.642 286.482 131.206 286.475H74.6796C73.0268 286.47 71.4318 285.867 70.1904 284.775C68.9491 283.684 68.1458 282.18 67.9295 280.541L65.7476 263.583C65.6242 262.626 65.7064 261.654 65.9886 260.731C66.2708 259.808 66.7465 258.956 67.3841 258.231C68.0217 257.507 68.8064 256.926 69.686 256.529C70.5656 256.132 71.5197 255.927 72.4848 255.927H123.614C125.624 255.927 127.612 255.499 129.443 254.671C131.275 253.843 132.909 252.634 134.237 251.125C135.565 249.616 136.557 247.841 137.145 245.919C137.734 243.997 137.906 241.971 137.65 239.977L125.911 149.037C125.465 145.628 123.796 142.497 121.214 140.227C118.632 137.957 115.313 136.703 111.875 136.698H55.3482C53.698 136.696 52.1048 136.095 50.8652 135.005C49.6257 133.916 48.8245 132.413 48.6109 130.777L46.4162 113.806C46.2927 112.848 46.3751 111.875 46.6581 110.951C46.941 110.027 47.4179 109.174 48.0569 108.449C48.6959 107.725 49.4822 107.145 50.3633 106.748C51.2444 106.352 52.2 106.148 53.1662 106.15H104.283C106.294 106.152 108.282 105.726 110.115 104.898C111.947 104.071 113.582 102.862 114.911 101.352C116.239 99.8428 117.23 98.0672 117.818 96.1441C118.406 94.221 118.576 92.1947 118.319 90.2004L108.111 11.3691C107.987 10.4119 108.07 9.43944 108.352 8.51651C108.634 7.59357 109.11 6.74142 109.747 6.0169C110.385 5.29238 111.17 4.71214 112.049 4.31488C112.929 3.91762 113.883 3.71248 114.848 3.71314H131.64C133.293 3.71746 134.888 4.32124 136.129 5.4124C137.371 6.50356 138.174 8.008 138.39 9.64654L149.249 93.8625C149.697 97.2692 151.368 100.397 153.95 102.664C156.532 104.932 159.849 106.184 163.285 106.189H300.149C302.16 106.191 304.148 105.764 305.981 104.936C307.813 104.109 309.448 102.9 310.777 101.391C312.105 99.881 313.096 98.1055 313.684 96.1824C314.272 94.2593 314.442 92.233 314.185 90.2387L303.977 11.4074C303.853 10.4502 303.936 9.47772 304.218 8.55478C304.5 7.63185 304.976 6.7797 305.613 6.05518C306.251 5.33065 307.036 4.75042 307.915 4.35316C308.795 3.9559 309.749 3.75075 310.714 3.75141H327.506C329.158 3.75843 330.752 4.36315 331.993 5.45381C333.233 6.54448 334.037 8.04738 334.256 9.68482L345.115 93.9008C345.561 97.3086 347.231 100.438 349.813 102.706C352.395 104.974 355.714 106.225 359.151 106.227H415.754C417.406 106.232 418.999 106.836 420.238 107.927C421.478 109.019 422.278 110.523 422.492 112.16L424.686 129.08C424.81 130.038 424.727 131.012 424.444 131.936C424.161 132.86 423.685 133.712 423.046 134.437C422.407 135.162 421.62 135.742 420.739 136.138C419.858 136.535 418.903 136.739 417.936 136.736H366.756C364.746 136.736 362.759 137.164 360.927 137.992C359.095 138.821 357.461 140.029 356.133 141.539C354.805 143.048 353.813 144.822 353.225 146.745C352.637 148.667 352.464 150.692 352.72 152.686L364.459 243.639C364.905 247.047 366.575 250.177 369.157 252.444C371.74 254.712 375.058 255.964 378.495 255.966H435.022C436.675 255.967 438.272 256.57 439.514 257.662C440.756 258.753 441.558 260.259 441.772 261.899L443.954 278.857C444.077 279.814 443.995 280.787 443.713 281.71C443.431 282.633 442.955 283.485 442.317 284.209C441.68 284.934 440.895 285.514 440.016 285.911C439.136 286.309 438.182 286.514 437.217 286.513H386.087C384.075 286.507 382.085 286.931 380.25 287.757C378.416 288.583 376.779 289.792 375.449 291.302C374.12 292.813 373.129 294.59 372.543 296.515C371.957 298.44 371.789 300.468 372.051 302.463L382.259 381.294C382.379 382.252 382.293 383.224 382.009 384.146C381.724 385.068 381.247 385.919 380.609 386.643C379.971 387.366 379.186 387.946 378.307 388.344C377.428 388.742 376.474 388.949 375.509 388.95L375.484 388.989ZM190.234 286.22H327.072C330.583 286.227 333.972 287.51 336.608 289.829C339.243 292.148 340.947 295.345 341.402 298.826L352.273 383.042C352.474 384.597 353.231 386.026 354.404 387.065C355.577 388.104 357.086 388.683 358.653 388.695H375.446C376.363 388.69 377.27 388.49 378.104 388.108C378.939 387.726 379.682 387.171 380.286 386.479C380.889 385.788 381.339 384.976 381.604 384.097C381.87 383.219 381.945 382.294 381.826 381.384L371.618 302.552C371.355 300.514 371.529 298.443 372.13 296.478C372.73 294.512 373.743 292.698 375.1 291.154C376.457 289.611 378.128 288.375 380 287.529C381.873 286.682 383.905 286.244 385.96 286.245H437.076C437.994 286.24 438.9 286.04 439.735 285.658C440.569 285.276 441.313 284.721 441.917 284.029C442.52 283.338 442.969 282.526 443.235 281.647C443.5 280.769 443.576 279.844 443.456 278.934L441.262 261.976C441.061 260.421 440.304 258.992 439.131 257.953C437.958 256.914 436.449 256.335 434.882 256.323H378.355C374.845 256.313 371.458 255.029 368.822 252.711C366.187 250.392 364.483 247.196 364.025 243.716L352.286 152.763C352.023 150.724 352.198 148.654 352.798 146.688C353.399 144.723 354.411 142.908 355.768 141.365C357.126 139.822 358.796 138.586 360.669 137.739C362.542 136.892 364.573 136.455 366.628 136.455H417.745C418.663 136.451 419.569 136.25 420.404 135.868C421.238 135.486 421.982 134.931 422.585 134.24C423.189 133.548 423.638 132.736 423.903 131.857C424.169 130.979 424.244 130.054 424.125 129.144L422.134 112.16C421.929 110.608 421.171 109.182 419.999 108.144C418.827 107.106 417.32 106.525 415.754 106.508H359.228C355.715 106.501 352.325 105.218 349.687 102.9C347.049 100.581 345.343 97.3831 344.885 93.9008L334.027 9.68482C333.824 8.13165 333.066 6.70419 331.894 5.66543C330.721 4.62668 329.213 4.04662 327.647 4.03214H310.74C309.822 4.03904 308.917 4.24049 308.084 4.62319C307.25 5.00589 306.507 5.56113 305.904 6.2522C305.301 6.94327 304.852 7.75444 304.585 8.63211C304.319 9.50979 304.242 10.434 304.36 11.3436L314.568 90.1749C314.839 92.2234 314.669 94.3064 314.067 96.2835C313.466 98.2605 312.448 100.086 311.081 101.636C309.715 103.186 308.032 104.425 306.146 105.27C304.26 106.115 302.215 106.546 300.149 106.533H163.311C159.798 106.526 156.408 105.244 153.77 102.925C151.132 100.606 149.426 97.4086 148.968 93.9263L138.11 9.71034C137.906 8.15717 137.149 6.7297 135.977 5.69095C134.804 4.6522 133.296 4.07214 131.73 4.05766H114.886C113.969 4.06252 113.062 4.26261 112.228 4.64464C111.393 5.02667 110.65 5.5819 110.046 6.27344C109.443 6.96498 108.993 7.777 108.728 8.65557C108.462 9.53414 108.387 10.4591 108.506 11.3691L118.714 90.2004C118.982 92.247 118.809 94.3272 118.205 96.3011C117.602 98.2751 116.583 100.097 115.217 101.644C113.851 103.192 112.17 104.429 110.286 105.272C108.402 106.115 106.36 106.545 104.296 106.533H53.179C52.2618 106.54 51.3566 106.742 50.523 107.124C49.6895 107.507 48.9467 108.062 48.3437 108.753C47.7406 109.444 47.2911 110.256 47.0248 111.133C46.7586 112.011 46.6816 112.935 46.799 113.845L48.9299 130.777C49.1329 132.33 49.8904 133.758 51.0628 134.797C52.2352 135.835 53.7436 136.415 55.3099 136.43H111.837C115.349 136.437 118.739 137.719 121.377 140.038C124.015 142.357 125.721 145.554 126.179 149.037L137.905 239.99C138.17 242.028 137.998 244.098 137.399 246.064C136.8 248.029 135.788 249.844 134.432 251.387C133.076 252.931 131.406 254.167 129.534 255.014C127.662 255.861 125.631 256.298 123.576 256.297H72.5104C71.5926 256.302 70.6863 256.502 69.8518 256.884C69.0173 257.266 68.2736 257.822 67.6702 258.513C67.0667 259.205 66.6173 260.017 66.3519 260.895C66.0864 261.774 66.0109 262.699 66.1304 263.609L68.3123 280.567C68.5154 282.12 69.2729 283.547 70.4453 284.586C71.6177 285.625 73.126 286.205 74.6923 286.22H131.206C134.717 286.227 138.106 287.51 140.742 289.829C143.377 292.148 145.081 295.345 145.536 298.826L156.407 383.042C156.608 384.597 157.365 386.026 158.538 387.065C159.711 388.104 161.22 388.683 162.787 388.695H179.694C180.612 388.69 181.518 388.49 182.353 388.108C183.187 387.726 183.931 387.171 184.535 386.479C185.138 385.788 185.587 384.976 185.853 384.097C186.118 383.219 186.194 382.294 186.074 381.384L175.866 302.552C175.603 300.514 175.778 298.443 176.378 296.478C176.979 294.512 177.992 292.698 179.349 291.154C180.706 289.611 182.377 288.375 184.249 287.529C186.122 286.682 188.154 286.244 190.209 286.245L190.234 286.22ZM319.48 256.297H182.642C179.13 256.29 175.74 255.008 173.102 252.689C170.464 250.37 168.757 247.173 168.3 243.69L156.56 152.737C156.297 150.699 156.472 148.628 157.073 146.663C157.673 144.697 158.686 142.882 160.043 141.339C161.4 139.796 163.071 138.56 164.943 137.713C166.816 136.867 168.848 136.429 170.903 136.43H307.741C311.253 136.437 314.643 137.719 317.281 140.038C319.919 142.357 321.626 145.554 322.083 149.037L333.81 239.99C334.073 242.027 333.898 244.097 333.299 246.061C332.699 248.026 331.687 249.84 330.331 251.383C328.976 252.926 327.307 254.162 325.435 255.01C323.564 255.857 321.534 256.296 319.48 256.297ZM170.903 136.749C168.892 136.749 166.905 137.177 165.074 138.005C163.242 138.833 161.608 140.042 160.279 141.551C158.951 143.06 157.96 144.835 157.372 146.757C156.783 148.679 156.611 150.705 156.867 152.699L168.606 243.652C169.054 247.059 170.725 250.187 173.307 252.454C175.888 254.721 179.206 255.974 182.642 255.978H319.48C321.491 255.98 323.479 255.553 325.312 254.726C327.145 253.899 328.78 252.69 330.108 251.18C331.437 249.671 332.428 247.895 333.016 245.972C333.603 244.049 333.774 242.023 333.516 240.028L321.79 149.088C321.344 145.679 319.675 142.548 317.093 140.278C314.511 138.008 311.192 136.754 307.754 136.749H170.903Z" fill="url(#paint3_linear_621_632)"/>
<path d="M268.912 339.837L278.929 345.694L294.049 323.389L284.033 317.52L268.912 339.837Z" fill="#E4897B"/>
<path d="M279.286 345.362L271.056 335.243C270.917 335.067 270.718 334.947 270.497 334.907C270.276 334.867 270.048 334.91 269.856 335.026L260.924 340.386C260.704 340.529 260.516 340.717 260.373 340.938C260.229 341.159 260.134 341.407 260.093 341.667C260.052 341.927 260.067 342.193 260.135 342.447C260.203 342.701 260.325 342.938 260.491 343.142C263.425 346.612 265.02 348.144 268.644 352.597C270.864 355.34 275.19 361.235 278.278 365.012C281.366 368.789 285.258 365.944 284.314 364.094C280.077 355.8 279.911 351.334 279.975 347.314C279.986 346.602 279.741 345.91 279.286 345.362Z" fill="#00114F"/>
<path d="M283.05 351.704H282.808C281.175 351.449 279.439 348.59 278.559 346.919C278.54 346.884 278.532 346.844 278.537 346.805C278.541 346.765 278.558 346.728 278.585 346.699C278.612 346.669 278.647 346.649 278.685 346.64C278.724 346.632 278.765 346.635 278.801 346.651C279.337 346.88 284.058 348.96 284.352 350.479C284.377 350.616 284.367 350.757 284.322 350.888C284.277 351.02 284.2 351.138 284.097 351.232C283.963 351.377 283.802 351.494 283.622 351.575C283.442 351.656 283.248 351.7 283.05 351.704ZM279.222 347.212C280.562 349.624 281.94 351.142 282.923 351.295C283.097 351.326 283.277 351.311 283.444 351.253C283.611 351.195 283.761 351.095 283.88 350.964C283.934 350.912 283.975 350.848 283.999 350.776C284.024 350.705 284.031 350.63 284.02 350.555C283.778 349.535 280.805 347.965 279.222 347.212Z" fill="url(#paint4_linear_621_632)"/>
<path d="M282.489 347.697C281.175 347.687 279.875 347.422 278.661 346.919C278.631 346.906 278.605 346.885 278.587 346.858C278.568 346.831 278.559 346.799 278.559 346.766C278.553 346.732 278.557 346.697 278.571 346.665C278.584 346.634 278.607 346.606 278.635 346.587C278.75 346.511 281.328 344.763 283.152 345.12C283.412 345.169 283.659 345.27 283.878 345.417C284.097 345.564 284.284 345.753 284.428 345.975C284.824 346.574 284.671 346.957 284.428 347.161C283.874 347.58 283.18 347.772 282.489 347.697ZM279.133 346.715C280.702 347.34 283.586 347.557 284.173 346.906C284.173 346.842 284.39 346.664 284.071 346.192C283.958 346.012 283.809 345.858 283.634 345.739C283.458 345.62 283.259 345.54 283.05 345.503C281.645 345.509 280.277 345.95 279.133 346.766V346.715Z" fill="url(#paint5_linear_621_632)"/>
<path d="M253.192 164.119L253.677 166.059L254.225 168.151C254.595 169.555 255.017 170.971 255.438 172.388C256.288 175.22 257.186 178.049 258.13 180.873C259.125 183.68 260.082 186.513 261.167 189.307C261.69 190.698 262.213 192.115 262.762 193.505L263.413 195.177C263.549 195.465 263.72 195.735 263.923 195.981C265.514 197.583 267.446 198.804 269.576 199.554C272.188 200.615 274.88 201.469 277.627 202.106C280.46 202.769 283.369 203.318 286.317 203.777C289.264 204.237 292.289 204.594 295.249 204.913L295.351 210.923C288.988 211.585 282.574 211.585 276.211 210.923C272.881 210.588 269.588 209.952 266.373 209.022C264.618 208.5 262.91 207.829 261.269 207.018C259.387 206.108 257.664 204.902 256.165 203.445C255.297 202.582 254.546 201.608 253.932 200.549C253.759 200.273 253.602 199.987 253.46 199.694L253.166 199.094L252.656 198.035C251.967 196.619 251.278 195.202 250.64 193.761C249.364 190.877 248.088 187.98 246.965 185.02C245.842 182.06 244.758 179.074 243.788 176.088C243.316 174.557 242.869 173.013 242.512 171.456L241.899 169.083C241.721 168.253 241.555 167.539 241.376 166.531L253.192 164.119Z" fill="#E4897B"/>
<path d="M249.402 151.474C254.187 152.686 257.543 172.388 257.543 172.388L244.349 181.32C244.349 181.32 231.704 161.452 235.417 156.182C239.22 150.747 242.423 149.688 249.402 151.474Z" fill="url(#paint6_linear_621_632)"/>
<path opacity="0.2" d="M249.402 151.474C254.187 152.686 257.543 172.388 257.543 172.388L244.349 181.32C244.349 181.32 231.704 161.452 235.417 156.182C239.22 150.747 242.423 149.688 249.402 151.474Z" fill="black"/>
<path d="M249.874 158.632L239.666 161.006L238.684 171.022C240.421 174.563 242.337 178.012 244.426 181.358L252.426 175.922C252.005 171.316 251.15 161.746 249.874 158.632Z" fill="url(#paint7_linear_621_632)"/>
<path opacity="0.3" d="M249.874 158.632L239.666 161.006L238.684 171.022C240.421 174.563 242.337 178.012 244.426 181.358L252.426 175.922C252.005 171.316 251.15 161.746 249.874 158.632Z" fill="black"/>
<path d="M293.488 204.785L301.718 196.44L302.803 208.192C302.803 208.192 296.627 212.377 292.352 210.132L293.488 204.785Z" fill="#E4897B"/>
<path d="M311.403 195.177L311.773 205.079L302.803 208.179L301.718 196.427L311.403 195.177Z" fill="#E4897B"/>
<path d="M252.388 362.792H264L267.738 335.894H256.114L252.388 362.792Z" fill="#E4897B"/>
<path d="M264.765 359.321L253.281 353.184C253.085 353.076 252.856 353.044 252.637 353.093C252.419 353.143 252.226 353.27 252.094 353.452L245.931 361.861C245.784 362.079 245.685 362.325 245.64 362.584C245.594 362.843 245.603 363.109 245.667 363.364C245.731 363.619 245.848 363.858 246.01 364.065C246.172 364.272 246.375 364.443 246.608 364.566C250.653 366.633 252.72 367.424 257.785 370.116C260.899 371.775 268.708 376.356 273.021 378.653C277.334 380.95 279.809 376.803 278.227 375.463C271.12 369.466 267.674 364.579 266.182 360.865C265.912 360.196 265.409 359.647 264.765 359.321Z" fill="#00114F"/>
<path d="M200.684 106.112C200.391 118.872 184.773 113.602 183.025 128.302C182.042 136.557 172.038 137.412 170.265 144.89C168.529 152.125 175.586 157.382 170.265 166.39C163.145 178.449 159.163 199.477 199.115 201.659C228.82 203.279 239.271 173.102 234.231 154.562C229.19 136.022 226.383 133.163 231.908 128.059C237.433 122.955 246.289 120.403 243.456 104.811C241.261 92.7523 235.928 94.1687 235.928 94.1687C235.66 87.508 201.386 77.7211 200.684 106.112Z" fill="#00114F"/>
<path d="M294.049 323.389L286.253 334.886L276.224 329.029L284.02 317.52L294.049 323.389Z" fill="#A76962"/>
<path d="M256.114 335.907H267.738L265.799 349.764H254.187L256.114 335.907Z" fill="#A76962"/>
<path d="M249.402 151.474C249.402 151.474 254.94 153.426 243.852 221.565H196.64C197.431 202.425 197.443 190.532 188.269 151.129C194.874 149.77 201.57 148.892 208.302 148.501C215.434 147.99 222.594 147.99 229.726 148.501C238.965 149.343 249.402 151.474 249.402 151.474Z" fill="url(#paint8_linear_621_632)"/>
<path opacity="0.2" d="M249.402 151.474C249.402 151.474 254.94 153.426 243.852 221.565H196.64C197.431 202.425 197.443 190.532 188.269 151.129C194.874 149.77 201.57 148.892 208.302 148.501C215.434 147.99 222.594 147.99 229.726 148.501C238.965 149.343 249.402 151.474 249.402 151.474Z" fill="black"/>
<path d="M210.471 124.397C211.824 131.288 213.177 143.907 208.353 148.514C208.353 148.514 210.242 155.506 223.04 155.506C235.366 155.506 229.777 148.514 229.777 148.514C222.121 146.676 222.287 140.972 223.627 135.613L210.471 124.397Z" fill="#E4897B"/>
<path d="M215.831 128.965L223.614 135.601C223.286 136.855 223.068 138.136 222.963 139.429C220.016 139.007 215.984 135.779 215.678 132.704C215.505 131.459 215.557 130.192 215.831 128.965Z" fill="#A76962"/>
<path d="M209.668 106.227C208.392 117.711 207.524 122.483 212.22 129.322C219.263 139.607 233.618 138.739 238.339 127.919C242.588 118.183 244.056 101.123 233.771 94.6025C231.511 93.1579 228.919 92.3155 226.242 92.1555C223.565 91.9954 220.891 92.523 218.475 93.6881C216.059 94.8532 213.982 96.617 212.44 98.8117C210.899 101.006 209.944 103.559 209.668 106.227Z" fill="#E4897B"/>
<path d="M209.604 112.99C211.224 116.001 236.03 102.284 233.21 94.9215C230.39 87.5589 223.002 90.2258 223.002 90.2258C223.002 90.2258 209.897 93.2116 207.69 100.013C205.482 106.814 209.604 112.99 209.604 112.99Z" fill="#00114F"/>
<path d="M204.832 114.304C205.062 116.514 206.125 118.554 207.805 120.008C210.05 121.909 212.283 120.212 212.59 117.456C212.87 114.993 212.041 111.076 209.349 110.183C206.656 109.289 204.576 111.637 204.832 114.304Z" fill="#E4897B"/>
<path d="M243.852 221.564C243.852 221.564 317.273 228.634 316.507 264.043C315.716 300.881 289.264 334.057 289.264 334.057L275.394 326.209C275.394 326.209 290.706 293.786 289.915 271.699C289.277 252.814 218.867 249.19 218.867 249.19L209.157 221.564H243.852Z" fill="url(#paint9_linear_621_632)"/>
<path opacity="0.6" d="M243.852 221.564C243.852 221.564 317.273 228.634 316.507 264.043C315.716 300.881 289.264 334.057 289.264 334.057L275.394 326.209C275.394 326.209 290.706 293.786 289.915 271.699C289.277 252.814 218.867 249.19 218.867 249.19L209.157 221.564H243.852Z" fill="#ADADAD"/>
<path d="M269.435 242.325L270.915 257.382C281.187 260.597 289.086 265.038 289.864 270.984C291.599 257.663 282.31 249.79 269.435 242.325Z" fill="url(#paint10_linear_621_632)"/>
<path opacity="0.4" d="M269.435 242.325L270.915 257.382C281.187 260.597 289.086 265.038 289.864 270.984C291.599 257.663 282.31 249.79 269.435 242.325Z" fill="#ADADAD"/>
<path d="M231.398 221.564C231.398 221.564 281.774 238.255 283.05 258.913C285.398 296.951 268.67 347.085 268.67 347.085H252.771C252.771 347.085 253.664 313.819 255.565 279.355C257.939 236.06 181.557 278.755 196.691 221.564H231.398Z" fill="url(#paint11_linear_621_632)"/>
<path opacity="0.6" d="M231.398 221.564C231.398 221.564 281.774 238.255 283.05 258.913C285.398 296.951 268.67 347.085 268.67 347.085H252.771C252.771 347.085 253.664 313.819 255.565 279.355C257.939 236.06 181.557 278.755 196.691 221.564H231.398Z" fill="#ADADAD"/>
<path d="M226.281 112.467C226.115 113.385 226.472 114.215 227.072 114.329C227.672 114.444 228.348 113.768 228.463 112.849C228.578 111.931 228.272 111.088 227.672 110.986C227.072 110.884 226.447 111.535 226.281 112.467Z" fill="#00114F"/>
<path d="M236.693 114.33C236.54 115.248 236.885 116.078 237.497 116.192C238.11 116.307 238.773 115.644 238.888 114.712C239.003 113.781 238.697 112.964 238.084 112.849C237.472 112.735 236.859 113.398 236.693 114.33Z" fill="#00114F"/>
<path d="M237.816 112.913L240.138 112.671C240.138 112.671 238.696 114.189 237.816 112.913Z" fill="#00114F"/>
<path d="M233.656 115.465C234.095 117.68 234.829 119.826 235.838 121.845C235.306 122.089 234.727 122.216 234.141 122.216C233.555 122.216 232.977 122.089 232.444 121.845L233.656 115.465Z" fill="#DE5753"/>
<path d="M227.187 124.32H227.11C225.256 123.449 223.805 121.901 223.053 119.995C223.045 119.973 223.042 119.95 223.043 119.927C223.045 119.904 223.051 119.881 223.062 119.861C223.073 119.841 223.088 119.823 223.106 119.808C223.124 119.794 223.145 119.784 223.168 119.778C223.189 119.77 223.211 119.766 223.233 119.767C223.256 119.768 223.278 119.773 223.298 119.783C223.318 119.792 223.336 119.806 223.351 119.822C223.366 119.839 223.377 119.859 223.385 119.88C224.104 121.682 225.469 123.151 227.213 124.001C227.254 124.021 227.287 124.056 227.303 124.098C227.32 124.141 227.319 124.189 227.302 124.231C227.29 124.253 227.274 124.273 227.254 124.288C227.234 124.303 227.211 124.314 227.187 124.32Z" fill="#00114F"/>
<path d="M225.12 108.332C225.07 108.332 225.022 108.321 224.977 108.299C224.933 108.277 224.894 108.244 224.865 108.205C224.83 108.175 224.802 108.138 224.782 108.096C224.763 108.054 224.753 108.008 224.753 107.962C224.753 107.916 224.763 107.871 224.782 107.829C224.802 107.787 224.83 107.75 224.865 107.72C225.481 107.152 226.224 106.741 227.032 106.519C227.84 106.297 228.69 106.271 229.509 106.444C229.599 106.468 229.676 106.526 229.722 106.606C229.769 106.686 229.782 106.782 229.758 106.871C229.734 106.961 229.676 107.038 229.596 107.084C229.516 107.131 229.42 107.144 229.331 107.12C228.619 106.978 227.883 107.01 227.186 107.212C226.488 107.414 225.85 107.781 225.324 108.281C225.262 108.318 225.191 108.335 225.12 108.332Z" fill="#00114F"/>
<path d="M242.384 110.182C242.317 110.178 242.251 110.155 242.195 110.117C242.139 110.079 242.094 110.027 242.065 109.965C241.794 109.295 241.368 108.699 240.823 108.224C240.277 107.75 239.627 107.411 238.926 107.235C238.833 107.219 238.75 107.168 238.695 107.091C238.64 107.015 238.618 106.92 238.633 106.827C238.651 106.736 238.704 106.656 238.78 106.604C238.856 106.552 238.95 106.531 239.041 106.546C239.859 106.735 240.62 107.119 241.258 107.666C241.895 108.212 242.391 108.905 242.703 109.685C242.724 109.726 242.736 109.772 242.738 109.818C242.74 109.865 242.733 109.911 242.716 109.954C242.699 109.998 242.673 110.037 242.64 110.07C242.607 110.102 242.568 110.128 242.525 110.144C242.482 110.17 242.434 110.184 242.384 110.182Z" fill="#00114F"/>
<path d="M269.116 363.456C267.751 363.456 265.901 362.027 264.867 361.108C264.836 361.085 264.813 361.053 264.801 361.016C264.79 360.98 264.791 360.94 264.804 360.904C264.815 360.867 264.837 360.834 264.866 360.81C264.896 360.785 264.931 360.769 264.969 360.763C265.441 360.763 269.589 360.38 270.456 361.516C270.549 361.636 270.609 361.778 270.629 361.928C270.649 362.078 270.629 362.231 270.571 362.371C270.501 362.617 270.369 362.841 270.188 363.022C270.007 363.202 269.783 363.334 269.537 363.405C269.399 363.436 269.258 363.453 269.116 363.456ZM265.467 361.121C267.151 362.524 268.606 363.239 269.435 363.022C269.62 362.97 269.788 362.871 269.922 362.735C270.056 362.598 270.152 362.429 270.201 362.243C270.249 362.172 270.275 362.087 270.275 362.001C270.275 361.915 270.249 361.83 270.201 361.759C269.588 361.018 266.909 361.031 265.467 361.121Z" fill="url(#paint12_linear_621_632)"/>
<path d="M264.995 361.159C264.96 361.162 264.925 361.153 264.895 361.135C264.866 361.116 264.842 361.089 264.829 361.057C264.813 361.027 264.805 360.994 264.805 360.961C264.805 360.928 264.813 360.895 264.829 360.865C264.893 360.751 266.462 357.829 268.07 357.446C268.263 357.39 268.467 357.38 268.664 357.418C268.861 357.456 269.047 357.54 269.206 357.663C269.385 357.756 269.526 357.909 269.603 358.096C269.68 358.283 269.689 358.491 269.627 358.683C269.282 359.857 266.411 361.121 265.008 361.159H264.995ZM268.415 357.79H268.147C266.998 358.058 265.799 359.934 265.339 360.687C266.679 360.483 268.976 359.411 269.244 358.53C269.244 358.39 269.308 358.173 268.976 357.943C268.809 357.835 268.613 357.782 268.415 357.79Z" fill="url(#paint13_linear_621_632)"/>
<path d="M227.391 110.986L229.726 110.744C229.726 110.744 228.272 112.275 227.391 110.986Z" fill="#00114F"/>
<path d="M195.976 218.821L195.606 223.045C195.44 223.376 195.823 223.708 196.372 223.708H244.081C244.515 223.708 244.86 223.504 244.885 223.236L245.319 219.012C245.319 218.719 244.974 218.464 244.515 218.464H196.742C196.594 218.456 196.447 218.484 196.314 218.546C196.18 218.609 196.064 218.703 195.976 218.821Z" fill="#00114F"/>
<path d="M202.394 224.142H201.118C200.863 224.142 200.672 224.015 200.684 223.849L201.284 218.362C201.284 218.196 201.527 218.068 201.782 218.068H203.058C203.313 218.068 203.504 218.196 203.492 218.362L202.892 223.849C202.866 224.015 202.662 224.142 202.394 224.142Z" fill="url(#paint14_linear_621_632)"/>
<path opacity="0.6" d="M202.394 224.142H201.118C200.863 224.142 200.672 224.015 200.684 223.849L201.284 218.362C201.284 218.196 201.527 218.068 201.782 218.068H203.058C203.313 218.068 203.504 218.196 203.492 218.362L202.892 223.849C202.866 224.015 202.662 224.142 202.394 224.142Z" fill="#ADADAD"/>
<path d="M240.496 224.142H239.22C238.965 224.142 238.773 224.015 238.799 223.849L239.398 218.362C239.398 218.196 239.628 218.068 239.883 218.068H241.159C241.414 218.068 241.606 218.196 241.58 218.362L240.981 223.849C240.942 224.015 240.751 224.142 240.496 224.142Z" fill="url(#paint15_linear_621_632)"/>
<path opacity="0.6" d="M240.496 224.142H239.22C238.965 224.142 238.773 224.015 238.799 223.849L239.398 218.362C239.398 218.196 239.628 218.068 239.883 218.068H241.159C241.414 218.068 241.606 218.196 241.58 218.362L240.981 223.849C240.942 224.015 240.751 224.142 240.496 224.142Z" fill="#ADADAD"/>
<path d="M221.445 224.142H220.169C219.914 224.142 219.71 224.015 219.735 223.849L220.335 218.362C220.335 218.196 220.577 218.068 220.833 218.068H222.109C222.364 218.068 222.555 218.196 222.542 218.362L221.943 223.849C221.917 224.015 221.7 224.142 221.445 224.142Z" fill="url(#paint16_linear_621_632)"/>
<path opacity="0.6" d="M221.445 224.142H220.169C219.914 224.142 219.71 224.015 219.735 223.849L220.335 218.362C220.335 218.196 220.577 218.068 220.833 218.068H222.109C222.364 218.068 222.555 218.196 222.542 218.362L221.943 223.849C221.917 224.015 221.7 224.142 221.445 224.142Z" fill="#ADADAD"/>
<path d="M199.421 169.427L193.335 174.608C194.611 181.498 195.504 187.24 196.065 192.344C197.201 187.227 200.11 173.345 199.421 169.427Z" fill="url(#paint17_linear_621_632)"/>
<path opacity="0.3" d="M199.421 169.427L193.335 174.608C194.611 181.498 195.504 187.24 196.065 192.344C197.201 187.227 200.11 173.345 199.421 169.427Z" fill="black"/>
<path d="M328.361 188.963H245.587L233.593 237.846H316.367L328.361 188.963Z" fill="#ADADAD"/>
<path d="M286.419 228.749L235.8 240.552L203.313 231.441L203.645 228.749H286.419Z" fill="#ADADAD"/>
<path d="M195.364 167.934C194.381 171.188 193.309 174.544 192.352 177.862C191.395 181.179 190.387 184.522 189.519 187.853C188.652 191.183 187.822 194.501 187.184 197.754C186.878 199.375 186.585 200.995 186.393 202.527C186.257 203.602 186.184 204.684 186.176 205.768C186.457 206.637 186.938 207.428 187.58 208.077C188.548 209.128 189.621 210.077 190.783 210.91C193.439 212.802 196.243 214.479 199.166 215.925C202.165 217.469 205.304 218.872 208.506 220.174C211.709 221.475 214.976 222.726 218.178 224.002L216.698 229.769C213.036 229.195 209.553 228.378 206.005 227.498C202.458 226.617 199 225.456 195.517 224.18C191.917 222.864 188.449 221.215 185.156 219.255C183.326 218.16 181.615 216.877 180.052 215.427C178.087 213.654 176.6 211.417 175.726 208.919C175.485 208.159 175.319 207.377 175.228 206.584V205.972V205.512V204.696C175.228 203.624 175.228 202.603 175.228 201.595C175.33 199.605 175.547 197.767 175.828 195.853C176.351 192.127 177.104 188.529 177.895 184.982C179.524 177.922 181.513 170.95 183.854 164.094L195.364 167.934Z" fill="#E4897B"/>
<path d="M188.32 151.193C183.599 152.635 176.364 171.188 176.364 171.188L194.7 184.293C194.7 184.293 202.943 168.432 200.952 162.32C198.834 155.902 193.73 149.496 188.32 151.193Z" fill="url(#paint18_linear_621_632)"/>
<path opacity="0.2" d="M188.32 151.193C183.599 152.635 176.364 171.188 176.364 171.188L194.7 184.293C194.7 184.293 202.943 168.432 200.952 162.32C198.834 155.902 193.73 149.496 188.32 151.193Z" fill="black"/>
<path d="M215.792 224.359L226.817 221.564L221.56 232.143C221.56 232.143 214.121 232.462 211.658 228.315L215.792 224.359Z" fill="#E4897B"/>
<path d="M235.711 225.584L230.836 234.21L221.56 232.143L226.817 221.564L235.711 225.584Z" fill="#E4897B"/>
<path d="M330.913 188.963H248.139L236.145 237.846H318.919L330.913 188.963Z" fill="#00114F"/>
<path d="M318.919 237.846L318.587 240.552H235.8L236.132 237.846H318.919Z" fill="#00114F"/>
<path d="M231.232 99.413C242.384 103.879 243.303 110.297 242.716 105.793C241.874 99.3237 236.502 94.6663 232.648 93.0968C230.39 92.1526 226.358 97.4608 231.232 99.413Z" fill="#00114F"/>
<path d="M210.446 105.257L209.693 106.138C209.575 106.259 209.51 106.421 209.51 106.591C209.51 106.76 209.575 106.922 209.693 107.043L215.716 112.53C215.836 112.641 215.993 112.702 216.156 112.702C216.319 112.702 216.476 112.641 216.596 112.53L217.63 111.573C217.698 111.512 217.753 111.438 217.79 111.354C217.827 111.27 217.847 111.18 217.847 111.088C217.847 110.997 217.827 110.906 217.79 110.823C217.753 110.739 217.698 110.665 217.63 110.604L211.314 105.193C211.187 105.095 211.028 105.047 210.868 105.059C210.707 105.071 210.557 105.141 210.446 105.257Z" fill="url(#paint19_linear_621_632)"/>
<path opacity="0.3" d="M210.446 105.257L209.693 106.138C209.575 106.259 209.51 106.421 209.51 106.591C209.51 106.76 209.575 106.922 209.693 107.043L215.716 112.53C215.836 112.641 215.993 112.702 216.156 112.702C216.319 112.702 216.476 112.641 216.596 112.53L217.63 111.573C217.698 111.512 217.753 111.438 217.79 111.354C217.827 111.27 217.847 111.18 217.847 111.088C217.847 110.997 217.827 110.906 217.79 110.823C217.753 110.739 217.698 110.665 217.63 110.604L211.314 105.193C211.187 105.095 211.028 105.047 210.868 105.059C210.707 105.071 210.557 105.141 210.446 105.257Z" fill="black"/>
<path d="M208.902 147.697C209.03 148.667 210.101 153.452 219.212 155.251C219.212 155.251 216.507 158.198 214.976 165.255C214.976 165.255 199 158.989 203.849 148.832C203.887 148.751 203.944 148.68 204.015 148.624C204.086 148.569 204.169 148.531 204.257 148.513L208.698 147.569C208.72 147.564 208.742 147.562 208.765 147.566C208.787 147.569 208.808 147.577 208.827 147.589C208.846 147.601 208.863 147.617 208.876 147.635C208.889 147.654 208.897 147.675 208.902 147.697Z" fill="url(#paint20_linear_621_632)"/>
<path opacity="0.6" d="M208.902 147.697C209.03 148.667 210.101 153.452 219.212 155.251C219.212 155.251 216.507 158.198 214.976 165.255C214.976 165.255 199 158.989 203.849 148.832C203.887 148.751 203.944 148.68 204.015 148.624C204.086 148.569 204.169 148.531 204.257 148.513L208.698 147.569C208.72 147.564 208.742 147.562 208.765 147.566C208.787 147.569 208.808 147.577 208.827 147.589C208.846 147.601 208.863 147.617 208.876 147.635C208.889 147.654 208.897 147.675 208.902 147.697Z" fill="#ADADAD"/>
<path d="M229.254 148.437C230.351 149.598 233.35 153.541 225.771 155.353C225.771 155.353 230.377 157.905 231.908 164.961C231.908 164.961 243.252 157.165 232.929 148.692C232.917 148.686 232.904 148.684 232.891 148.684C232.877 148.684 232.864 148.686 232.852 148.692L229.394 148.207C229.368 148.209 229.343 148.217 229.32 148.231C229.298 148.245 229.279 148.264 229.265 148.286C229.252 148.309 229.244 148.334 229.242 148.36C229.24 148.386 229.244 148.413 229.254 148.437Z" fill="url(#paint21_linear_621_632)"/>
<path opacity="0.6" d="M229.254 148.437C230.351 149.598 233.35 153.541 225.771 155.353C225.771 155.353 230.377 157.905 231.908 164.961C231.908 164.961 243.252 157.165 232.929 148.692C232.917 148.686 232.904 148.684 232.891 148.684C232.877 148.684 232.864 148.686 232.852 148.692L229.394 148.207C229.368 148.209 229.343 148.217 229.32 148.231C229.298 148.245 229.279 148.264 229.265 148.286C229.252 148.309 229.244 148.334 229.242 148.36C229.24 148.386 229.244 148.413 229.254 148.437Z" fill="#ADADAD"/>
<path d="M337.548 75.016C335.609 54.97 317.987 38.7265 298.196 38.7393C278.406 38.752 263.91 54.9955 265.888 75.0415C266.602 81.5458 268.863 87.7847 272.482 93.2366C276.1 98.6886 280.971 103.195 286.687 106.38L286.368 119.14L296.984 110.399C299.692 111.026 302.461 111.347 305.24 111.356C325.031 111.318 339.501 95.0492 337.548 75.016Z" fill="url(#paint22_linear_621_632)"/>
<path opacity="0.6" d="M337.548 75.016C335.609 54.97 317.987 38.7265 298.196 38.7393C278.406 38.752 263.91 54.9955 265.888 75.0415C266.602 81.5458 268.863 87.7847 272.482 93.2366C276.1 98.6886 280.971 103.195 286.687 106.38L286.368 119.14L296.984 110.399C299.692 111.026 302.461 111.347 305.24 111.356C325.031 111.318 339.501 95.0492 337.548 75.016Z" fill="#ADADAD"/>
<path d="M304.742 68.7124C295.976 66.0711 289.788 56.6925 289.788 56.6925C289.788 56.6925 287.082 56.5394 287.236 59.0148C287.519 62.4423 289.092 65.6345 291.638 67.9468L287.529 67.7172C286.084 67.6352 284.635 67.7948 283.242 68.1893L281.966 68.5593C281.419 68.7256 280.914 69.0032 280.48 69.3747C280.046 69.7462 279.694 70.2035 279.446 70.7178C279.198 71.2321 279.059 71.7922 279.038 72.3628C279.017 72.9335 279.115 73.5023 279.324 74.0334L282.055 82.0849C282.96 84.6895 284.771 86.8816 287.159 88.2608C289.18 89.4664 291.552 89.948 293.884 89.6261C297.992 89.0008 304.385 88.0439 305.482 87.8397L308.43 87.5845L307.562 69.5291L304.742 68.7124Z" fill="#ADADAD"/>
<path d="M320.156 90.0216H308.672C308.23 90.0063 307.808 89.8332 307.483 89.5336C307.158 89.2339 306.95 88.8277 306.899 88.3884L304.908 67.8447C304.883 67.6393 304.902 67.4307 304.963 67.2331C305.025 67.0354 305.128 66.8532 305.266 66.6986C305.403 66.544 305.572 66.4206 305.762 66.3366C305.951 66.2526 306.156 66.2099 306.363 66.2115H317.847C318.293 66.2242 318.72 66.3978 319.048 66.7003C319.376 67.0028 319.584 67.4138 319.633 67.8575L321.624 88.3884C321.647 88.5945 321.627 88.8033 321.564 89.001C321.5 89.1986 321.396 89.3806 321.257 89.535C321.119 89.6893 320.949 89.8125 320.759 89.8964C320.569 89.9803 320.364 90.023 320.156 90.0216Z" fill="url(#paint23_linear_621_632)"/>
<path d="M151.482 173.166L139.998 162.282C140.163 160.012 140.138 157.733 139.921 155.468C137.765 133.316 118.293 115.363 96.4226 115.376C74.552 115.388 58.5764 133.355 60.6946 155.506C62.8128 177.657 82.3101 195.611 104.181 195.598C110.922 195.71 117.553 193.881 123.284 190.329C129.014 186.777 133.603 181.652 136.502 175.565L151.482 173.166Z" fill="url(#paint24_linear_621_632)"/>
<path d="M118.676 141.138C112.692 135.613 103.862 135.626 98.9618 141.138C92.9774 135.626 84.1475 135.626 79.2349 141.138C74.3223 146.651 75.1899 155.608 81.1744 161.12L102.866 181.09L120.641 161.108C125.528 155.595 124.66 146.651 118.676 141.138Z" fill="url(#paint25_linear_621_632)"/>
<path opacity="0.6" d="M118.676 141.138C112.692 135.613 103.862 135.626 98.9618 141.138C92.9774 135.626 84.1475 135.626 79.2349 141.138C74.3223 146.651 75.1899 155.608 81.1744 161.12L102.866 181.09L120.641 161.108C125.528 155.595 124.66 146.651 118.676 141.138Z" fill="#ADADAD"/>
<defs>
<linearGradient id="paint0_linear_621_632" x1="226.487" y1="0" x2="226.487" y2="392.689" gradientUnits="userSpaceOnUse">
<stop stop-color="#ADBFFF"/>
<stop offset="1" stop-color="#182558"/>
</linearGradient>
<linearGradient id="paint1_linear_621_632" x1="258.481" y1="35.9705" x2="258.481" y2="339.671" gradientUnits="userSpaceOnUse">
<stop stop-color="#ADBFFF"/>
<stop offset="1" stop-color="#182558"/>
</linearGradient>
<linearGradient id="paint2_linear_621_632" x1="245.228" y1="0.0256348" x2="245.228" y2="392.727" gradientUnits="userSpaceOnUse">
<stop stop-color="#ADBFFF"/>
<stop offset="1" stop-color="#182558"/>
</linearGradient>
<linearGradient id="paint3_linear_621_632" x1="245.185" y1="3.71313" x2="245.185" y2="388.989" gradientUnits="userSpaceOnUse">
<stop stop-color="#ADBFFF"/>
<stop offset="1" stop-color="#182558"/>
</linearGradient>
<linearGradient id="paint4_linear_621_632" x1="281.45" y1="346.636" x2="281.45" y2="351.704" gradientUnits="userSpaceOnUse">
<stop stop-color="#ADBFFF"/>
<stop offset="1" stop-color="#182558"/>
</linearGradient>
<linearGradient id="paint5_linear_621_632" x1="281.614" y1="345.072" x2="281.614" y2="347.713" gradientUnits="userSpaceOnUse">
<stop stop-color="#ADBFFF"/>
<stop offset="1" stop-color="#182558"/>
</linearGradient>
<linearGradient id="paint6_linear_621_632" x1="246.139" y1="150.675" x2="246.139" y2="181.32" gradientUnits="userSpaceOnUse">
<stop stop-color="#ADBFFF"/>
<stop offset="1" stop-color="#182558"/>
</linearGradient>
<linearGradient id="paint7_linear_621_632" x1="245.555" y1="158.632" x2="245.555" y2="181.358" gradientUnits="userSpaceOnUse">
<stop stop-color="#ADBFFF"/>
<stop offset="1" stop-color="#182558"/>
</linearGradient>
<linearGradient id="paint8_linear_621_632" x1="219.527" y1="148.118" x2="219.527" y2="221.565" gradientUnits="userSpaceOnUse">
<stop stop-color="#ADBFFF"/>
<stop offset="1" stop-color="#182558"/>
</linearGradient>
<linearGradient id="paint9_linear_621_632" x1="262.835" y1="221.564" x2="262.835" y2="334.057" gradientUnits="userSpaceOnUse">
<stop stop-color="#ADBFFF"/>
<stop offset="1" stop-color="#182558"/>
</linearGradient>
<linearGradient id="paint10_linear_621_632" x1="279.754" y1="242.325" x2="279.754" y2="270.984" gradientUnits="userSpaceOnUse">
<stop stop-color="#ADBFFF"/>
<stop offset="1" stop-color="#182558"/>
</linearGradient>
<linearGradient id="paint11_linear_621_632" x1="238.99" y1="221.564" x2="238.99" y2="347.085" gradientUnits="userSpaceOnUse">
<stop stop-color="#ADBFFF"/>
<stop offset="1" stop-color="#182558"/>
</linearGradient>
<linearGradient id="paint12_linear_621_632" x1="267.715" y1="360.701" x2="267.715" y2="363.456" gradientUnits="userSpaceOnUse">
<stop stop-color="#ADBFFF"/>
<stop offset="1" stop-color="#182558"/>
</linearGradient>
<linearGradient id="paint13_linear_621_632" x1="267.236" y1="357.396" x2="267.236" y2="361.159" gradientUnits="userSpaceOnUse">
<stop stop-color="#ADBFFF"/>
<stop offset="1" stop-color="#182558"/>
</linearGradient>
<linearGradient id="paint14_linear_621_632" x1="202.088" y1="218.068" x2="202.088" y2="224.142" gradientUnits="userSpaceOnUse">
<stop stop-color="#ADBFFF"/>
<stop offset="1" stop-color="#182558"/>
</linearGradient>
<linearGradient id="paint15_linear_621_632" x1="240.19" y1="218.068" x2="240.19" y2="224.142" gradientUnits="userSpaceOnUse">
<stop stop-color="#ADBFFF"/>
<stop offset="1" stop-color="#182558"/>
</linearGradient>
<linearGradient id="paint16_linear_621_632" x1="221.138" y1="218.068" x2="221.138" y2="224.142" gradientUnits="userSpaceOnUse">
<stop stop-color="#ADBFFF"/>
<stop offset="1" stop-color="#182558"/>
</linearGradient>
<linearGradient id="paint17_linear_621_632" x1="196.43" y1="169.427" x2="196.43" y2="192.344" gradientUnits="userSpaceOnUse">
<stop stop-color="#ADBFFF"/>
<stop offset="1" stop-color="#182558"/>
</linearGradient>
<linearGradient id="paint18_linear_621_632" x1="188.813" y1="150.917" x2="188.813" y2="184.293" gradientUnits="userSpaceOnUse">
<stop stop-color="#ADBFFF"/>
<stop offset="1" stop-color="#182558"/>
</linearGradient>
<linearGradient id="paint19_linear_621_632" x1="213.678" y1="105.057" x2="213.678" y2="112.702" gradientUnits="userSpaceOnUse">
<stop stop-color="#ADBFFF"/>
<stop offset="1" stop-color="#182558"/>
</linearGradient>
<linearGradient id="paint20_linear_621_632" x1="211.072" y1="147.564" x2="211.072" y2="165.255" gradientUnits="userSpaceOnUse">
<stop stop-color="#ADBFFF"/>
<stop offset="1" stop-color="#182558"/>
</linearGradient>
<linearGradient id="paint21_linear_621_632" x1="231.519" y1="148.207" x2="231.519" y2="164.961" gradientUnits="userSpaceOnUse">
<stop stop-color="#ADBFFF"/>
<stop offset="1" stop-color="#182558"/>
</linearGradient>
<linearGradient id="paint22_linear_621_632" x1="301.716" y1="38.7393" x2="301.716" y2="119.14" gradientUnits="userSpaceOnUse">
<stop stop-color="#ADBFFF"/>
<stop offset="1" stop-color="#182558"/>
</linearGradient>
<linearGradient id="paint23_linear_621_632" x1="313.265" y1="66.2114" x2="313.265" y2="90.0217" gradientUnits="userSpaceOnUse">
<stop stop-color="#ADBFFF"/>
<stop offset="1" stop-color="#182558"/>
</linearGradient>
<linearGradient id="paint24_linear_621_632" x1="105.994" y1="115.376" x2="105.994" y2="195.603" gradientUnits="userSpaceOnUse">
<stop stop-color="#ADBFFF"/>
<stop offset="1" stop-color="#182558"/>
</linearGradient>
<linearGradient id="paint25_linear_621_632" x1="99.9275" y1="136.999" x2="99.9275" y2="181.09" gradientUnits="userSpaceOnUse">
<stop stop-color="#ADBFFF"/>
<stop offset="1" stop-color="#182558"/>
</linearGradient>
</defs>
</svg>
