<svg width="493" height="345" viewBox="0 0 493 345" fill="none" xmlns="http://www.w3.org/2000/svg">
<g opacity="0.9">
<path d="M23.2341 180L2.73342 95.7196H22.3229L36.3317 154.602L51.0238 95.7196H71.2967L85.9888 154.602L99.9976 95.7196H119.587L99.0865 180H73.4606L61.1603 130.001L48.8599 180H23.2341ZM133.051 180V93.4417H152.527V128.179H153.096C153.856 126.964 154.881 125.597 156.171 124.079C157.538 122.56 159.323 121.269 161.524 120.206C163.802 119.068 166.612 118.498 169.952 118.498C174.812 118.498 178.684 119.599 181.57 121.801C184.531 124.003 186.657 126.812 187.947 130.229C189.238 133.57 189.884 137.025 189.884 140.593V180H170.408V144.238C170.408 141.656 169.725 139.378 168.358 137.404C166.991 135.354 164.751 134.329 161.638 134.329C158.222 134.329 155.83 135.468 154.463 137.746C153.172 139.948 152.527 142.378 152.527 145.035V180H133.051ZM209.429 202.209C207.303 202.209 205.594 202.133 204.304 201.981C203.089 201.829 202.481 201.753 202.481 201.753V186.264C202.481 186.264 202.975 186.302 203.962 186.378C204.949 186.454 206.202 186.492 207.72 186.492C211.061 186.492 213.833 186.074 216.034 185.239C218.236 184.48 220.135 182.885 221.729 180.456L199.748 119.637H219.223L231.979 158.36L244.394 119.637H263.755L242.799 176.811C240.749 182.506 238.319 187.213 235.51 190.934C232.777 194.73 229.322 197.539 225.146 199.362C220.97 201.26 215.731 202.209 209.429 202.209Z" fill="white"/>
<mask id="path-2-outside-1_832_306" maskUnits="userSpaceOnUse" x="320" y="82" width="133" height="200" fill="black">
<rect fill="white" x="320" y="82" width="133" height="200"/>
<path d="M367.8 224.18V215.6C367.8 207.627 369.447 200.78 372.74 195.06C376.033 189.34 380.107 184.4 384.96 180.24C389.813 175.907 394.58 171.833 399.26 168.02C404.113 164.207 408.187 160.133 411.48 155.8C414.773 151.293 416.42 146.093 416.42 140.2C416.42 132.053 413.387 125.64 407.32 120.96C401.427 116.107 394.407 113.68 386.26 113.68C380.887 113.68 375.773 114.893 370.92 117.32C366.24 119.573 362.427 123.127 359.48 127.98C356.533 132.833 355.06 139.073 355.06 146.7H321.52C321.52 132.313 324.64 120.44 330.88 111.08C337.293 101.547 345.527 94.5267 355.58 90.02C365.633 85.34 376.207 83 387.3 83C398.913 83 409.573 85.34 419.28 90.02C429.16 94.5267 437.047 101.027 442.94 109.52C448.833 117.84 451.78 127.807 451.78 139.42C451.78 148.26 450.047 155.8 446.58 162.04C443.287 168.107 439.213 173.48 434.36 178.16C429.507 182.667 424.567 186.827 419.54 190.64C414.687 194.453 410.613 198.353 407.32 202.34C404.027 206.153 402.38 210.573 402.38 215.6V224.18H367.8ZM385.22 280.6C379.5 280.6 374.82 278.693 371.18 274.88C367.54 271.067 365.72 266.473 365.72 261.1C365.72 255.727 367.54 251.22 371.18 247.58C374.82 243.767 379.5 241.86 385.22 241.86C390.767 241.86 395.36 243.767 399 247.58C402.813 251.22 404.72 255.727 404.72 261.1C404.72 266.473 402.813 271.067 399 274.88C395.36 278.693 390.767 280.6 385.22 280.6Z"/>
</mask>
<path d="M367.8 224.18V215.6C367.8 207.627 369.447 200.78 372.74 195.06C376.033 189.34 380.107 184.4 384.96 180.24C389.813 175.907 394.58 171.833 399.26 168.02C404.113 164.207 408.187 160.133 411.48 155.8C414.773 151.293 416.42 146.093 416.42 140.2C416.42 132.053 413.387 125.64 407.32 120.96C401.427 116.107 394.407 113.68 386.26 113.68C380.887 113.68 375.773 114.893 370.92 117.32C366.24 119.573 362.427 123.127 359.48 127.98C356.533 132.833 355.06 139.073 355.06 146.7H321.52C321.52 132.313 324.64 120.44 330.88 111.08C337.293 101.547 345.527 94.5267 355.58 90.02C365.633 85.34 376.207 83 387.3 83C398.913 83 409.573 85.34 419.28 90.02C429.16 94.5267 437.047 101.027 442.94 109.52C448.833 117.84 451.78 127.807 451.78 139.42C451.78 148.26 450.047 155.8 446.58 162.04C443.287 168.107 439.213 173.48 434.36 178.16C429.507 182.667 424.567 186.827 419.54 190.64C414.687 194.453 410.613 198.353 407.32 202.34C404.027 206.153 402.38 210.573 402.38 215.6V224.18H367.8ZM385.22 280.6C379.5 280.6 374.82 278.693 371.18 274.88C367.54 271.067 365.72 266.473 365.72 261.1C365.72 255.727 367.54 251.22 371.18 247.58C374.82 243.767 379.5 241.86 385.22 241.86C390.767 241.86 395.36 243.767 399 247.58C402.813 251.22 404.72 255.727 404.72 261.1C404.72 266.473 402.813 271.067 399 274.88C395.36 278.693 390.767 280.6 385.22 280.6Z" fill="white"/>
<path d="M367.8 224.18H366.8V225.18H367.8V224.18ZM372.74 195.06L373.607 195.559L372.74 195.06ZM384.96 180.24L385.611 180.999L385.618 180.993L385.626 180.986L384.96 180.24ZM399.26 168.02L398.642 167.234L398.635 167.239L398.628 167.245L399.26 168.02ZM411.48 155.8L412.276 156.405L412.282 156.398L412.287 156.39L411.48 155.8ZM407.32 120.96L406.684 121.732L406.697 121.742L406.709 121.752L407.32 120.96ZM370.92 117.32L371.354 118.221L371.361 118.218L371.367 118.214L370.92 117.32ZM359.48 127.98L360.335 128.499H360.335L359.48 127.98ZM355.06 146.7V147.7H356.06V146.7H355.06ZM321.52 146.7H320.52V147.7H321.52V146.7ZM330.88 111.08L330.05 110.522L330.048 110.525L330.88 111.08ZM355.58 90.02L355.989 90.9325L355.996 90.9296L356.002 90.9266L355.58 90.02ZM419.28 90.02L418.846 90.9208L418.855 90.9254L418.865 90.9298L419.28 90.02ZM442.94 109.52L442.118 110.09L442.124 110.098L442.94 109.52ZM446.58 162.04L445.706 161.554L445.701 161.563L446.58 162.04ZM434.36 178.16L435.04 178.893L435.047 178.886L435.054 178.88L434.36 178.16ZM419.54 190.64L418.936 189.843L418.929 189.848L418.922 189.854L419.54 190.64ZM407.32 202.34L408.077 202.994L408.084 202.985L408.091 202.977L407.32 202.34ZM402.38 224.18V225.18H403.38V224.18H402.38ZM371.18 274.88L371.903 274.19L371.18 274.88ZM371.18 247.58L371.887 248.287L371.895 248.279L371.903 248.27L371.18 247.58ZM399 247.58L398.277 248.27L398.293 248.287L398.31 248.303L399 247.58ZM399 274.88L398.293 274.173L398.285 274.181L398.277 274.19L399 274.88ZM367.8 224.18H368.8V215.6H367.8H366.8V224.18H367.8ZM367.8 215.6H368.8C368.8 207.765 370.417 201.098 373.607 195.559L372.74 195.06L371.873 194.561C368.476 200.462 366.8 207.488 366.8 215.6H367.8ZM372.74 195.06L373.607 195.559C376.845 189.934 380.846 185.083 385.611 180.999L384.96 180.24L384.309 179.481C379.367 183.717 375.221 188.746 371.873 194.561L372.74 195.06ZM384.96 180.24L385.626 180.986C390.469 176.662 395.224 172.598 399.892 168.795L399.26 168.02L398.628 167.245C393.936 171.068 389.158 175.151 384.294 179.494L384.96 180.24ZM399.26 168.02L399.878 168.806C404.789 164.947 408.925 160.815 412.276 156.405L411.48 155.8L410.684 155.195C407.448 159.452 403.437 163.466 398.642 167.234L399.26 168.02ZM411.48 155.8L412.287 156.39C415.713 151.702 417.42 146.293 417.42 140.2H416.42H415.42C415.42 145.894 413.834 150.884 410.673 155.21L411.48 155.8ZM416.42 140.2H417.42C417.42 131.766 414.26 125.051 407.931 120.168L407.32 120.96L406.709 121.752C412.513 126.229 415.42 132.341 415.42 140.2H416.42ZM407.32 120.96L407.956 120.188C401.871 115.177 394.622 112.68 386.26 112.68V113.68V114.68C394.191 114.68 400.983 117.036 406.684 121.732L407.32 120.96ZM386.26 113.68V112.68C380.73 112.68 375.464 113.93 370.473 116.426L370.92 117.32L371.367 118.214C376.083 115.856 381.043 114.68 386.26 114.68V113.68ZM370.92 117.32L370.486 116.419C365.616 118.764 361.663 122.458 358.625 127.461L359.48 127.98L360.335 128.499C363.191 123.795 366.864 120.383 371.354 118.221L370.92 117.32ZM359.48 127.98L358.625 127.461C355.556 132.516 354.06 138.951 354.06 146.7H355.06H356.06C356.06 139.195 357.51 133.151 360.335 128.499L359.48 127.98ZM355.06 146.7V145.7H321.52V146.7V147.7H355.06V146.7ZM321.52 146.7H322.52C322.52 132.456 325.608 120.79 331.712 111.635L330.88 111.08L330.048 110.525C323.672 120.09 320.52 132.171 320.52 146.7H321.52ZM330.88 111.08L331.71 111.638C338.023 102.253 346.114 95.3593 355.989 90.9325L355.58 90.02L355.171 89.1075C344.94 93.694 336.563 100.84 330.05 110.522L330.88 111.08ZM355.58 90.02L356.002 90.9266C365.923 86.3081 376.352 84 387.3 84V83V82C376.061 82 365.344 84.3718 355.158 89.1134L355.58 90.02ZM387.3 83V84C398.775 84 409.285 86.3111 418.846 90.9208L419.28 90.02L419.714 89.1192C409.862 84.3689 399.052 82 387.3 82V83ZM419.28 90.02L418.865 90.9298C428.59 95.3658 436.333 101.752 442.118 110.09L442.94 109.52L443.762 108.95C437.76 100.301 429.73 93.6875 419.695 89.1102L419.28 90.02ZM442.94 109.52L442.124 110.098C447.881 118.226 450.78 127.984 450.78 139.42H451.78H452.78C452.78 127.629 449.785 117.454 443.756 108.942L442.94 109.52ZM451.78 139.42H450.78C450.78 148.13 449.073 155.494 445.706 161.554L446.58 162.04L447.454 162.526C451.021 156.106 452.78 148.39 452.78 139.42H451.78ZM446.58 162.04L445.701 161.563C442.455 167.542 438.444 172.833 433.666 177.44L434.36 178.16L435.054 178.88C439.983 174.127 444.118 168.671 447.459 162.517L446.58 162.04ZM434.36 178.16L433.68 177.427C428.849 181.912 423.935 186.051 418.936 189.843L419.54 190.64L420.144 191.437C425.199 187.602 430.164 183.421 435.04 178.893L434.36 178.16ZM419.54 190.64L418.922 189.854C414.023 193.703 409.896 197.652 406.549 201.703L407.32 202.34L408.091 202.977C411.331 199.055 415.35 195.204 420.158 191.426L419.54 190.64ZM407.32 202.34L406.563 201.686C403.113 205.681 401.38 210.333 401.38 215.6H402.38H403.38C403.38 210.814 404.94 206.626 408.077 202.994L407.32 202.34ZM402.38 215.6H401.38V224.18H402.38H403.38V215.6H402.38ZM402.38 224.18V223.18H367.8V224.18V225.18H402.38V224.18ZM385.22 280.6V279.6C379.747 279.6 375.338 277.787 371.903 274.19L371.18 274.88L370.457 275.57C374.302 279.599 379.253 281.6 385.22 281.6V280.6ZM371.18 274.88L371.903 274.19C368.445 270.566 366.72 266.222 366.72 261.1H365.72H364.72C364.72 266.725 366.635 271.567 370.457 275.57L371.18 274.88ZM365.72 261.1H366.72C366.72 255.979 368.444 251.731 371.887 248.287L371.18 247.58L370.473 246.873C366.636 250.709 364.72 255.474 364.72 261.1H365.72ZM371.18 247.58L371.903 248.27C375.338 244.673 379.747 242.86 385.22 242.86V241.86V240.86C379.253 240.86 374.302 242.861 370.457 246.89L371.18 247.58ZM385.22 241.86V242.86C390.509 242.86 394.836 244.666 398.277 248.27L399 247.58L399.723 246.89C395.884 242.867 391.024 240.86 385.22 240.86V241.86ZM399 247.58L398.31 248.303C401.921 251.751 403.72 255.994 403.72 261.1H404.72H405.72C405.72 255.459 403.706 250.689 399.69 246.857L399 247.58ZM404.72 261.1H403.72C403.72 266.207 401.919 270.546 398.293 274.173L399 274.88L399.707 275.587C403.707 271.587 405.72 266.74 405.72 261.1H404.72ZM399 274.88L398.277 274.19C394.836 277.794 390.509 279.6 385.22 279.6V280.6V281.6C391.024 281.6 395.884 279.593 399.723 275.57L399 274.88Z" fill="white" mask="url(#path-2-outside-1_832_306)"/>
<mask id="path-4-outside-2_832_306" maskUnits="userSpaceOnUse" x="6.22852" y="203.839" width="326" height="78" fill="black">
<rect fill="white" x="6.22852" y="203.839" width="326" height="78"/>
<path d="M12.037 275.839V212.629H25.1916V239.365L47.8277 212.629H64.0574L37.6628 242.952L64.997 275.839H48.1694L25.1916 247.736V275.839H12.037ZM77.2821 254.313V244.063H109.314V254.313H77.2821ZM125.068 275.839V212.629H169.229V224.075H138.222V240.646H165.3V251.665H138.222V275.839H125.068ZM197.579 276.693C192.511 276.693 188.212 275.611 184.681 273.447C181.15 271.226 178.445 268.35 176.566 264.82C174.744 261.232 173.833 257.36 173.833 253.203C173.833 249.046 174.744 245.202 176.566 241.671C178.445 238.084 181.15 235.208 184.681 233.044C188.212 230.823 192.511 229.712 197.579 229.712C202.647 229.712 206.947 230.823 210.478 233.044C214.008 235.208 216.685 238.084 218.507 241.671C220.386 245.202 221.326 249.046 221.326 253.203C221.326 257.36 220.386 261.232 218.507 264.82C216.685 268.35 214.008 271.226 210.478 273.447C206.947 275.611 202.647 276.693 197.579 276.693ZM197.579 266.101C199.857 266.101 201.765 265.503 203.302 264.307C204.897 263.111 206.121 261.545 206.975 259.609C207.83 257.616 208.257 255.481 208.257 253.203C208.257 250.868 207.83 248.732 206.975 246.796C206.121 244.86 204.897 243.294 203.302 242.098C201.765 240.902 199.857 240.304 197.579 240.304C195.301 240.304 193.365 240.902 191.771 242.098C190.176 243.294 188.952 244.86 188.098 246.796C187.3 248.732 186.902 250.868 186.902 253.203C186.902 255.481 187.3 257.616 188.098 259.609C188.952 261.545 190.176 263.111 191.771 264.307C193.365 265.503 195.301 266.101 197.579 266.101ZM231.008 275.839V210.92H243.991V275.839H231.008ZM262.449 224.416C260.171 224.416 258.321 223.705 256.897 222.281C255.473 220.8 254.761 219.063 254.761 217.07C254.761 214.963 255.473 213.198 256.897 211.774C258.321 210.294 260.171 209.553 262.449 209.553C264.613 209.553 266.435 210.294 267.916 211.774C269.397 213.198 270.137 214.963 270.137 217.07C270.137 219.063 269.397 220.8 267.916 222.281C266.435 223.705 264.613 224.416 262.449 224.416ZM255.957 275.839V230.567H268.941V275.839H255.957ZM303.186 276.693C298.117 276.693 293.818 275.611 290.287 273.447C286.757 271.226 284.052 268.35 282.172 264.82C280.35 261.232 279.439 257.36 279.439 253.203C279.439 249.046 280.35 245.202 282.172 241.671C284.052 238.084 286.757 235.208 290.287 233.044C293.818 230.823 298.117 229.712 303.186 229.712C308.254 229.712 312.553 230.823 316.084 233.044C319.615 235.208 322.291 238.084 324.113 241.671C325.993 245.202 326.932 249.046 326.932 253.203C326.932 257.36 325.993 261.232 324.113 264.82C322.291 268.35 319.615 271.226 316.084 273.447C312.553 275.611 308.254 276.693 303.186 276.693ZM303.186 266.101C305.463 266.101 307.371 265.503 308.909 264.307C310.503 263.111 311.728 261.545 312.582 259.609C313.436 257.616 313.863 255.481 313.863 253.203C313.863 250.868 313.436 248.732 312.582 246.796C311.728 244.86 310.503 243.294 308.909 242.098C307.371 240.902 305.463 240.304 303.186 240.304C300.908 240.304 298.972 240.902 297.377 242.098C295.783 243.294 294.558 244.86 293.704 246.796C292.907 248.732 292.508 250.868 292.508 253.203C292.508 255.481 292.907 257.616 293.704 259.609C294.558 261.545 295.783 263.111 297.377 264.307C298.972 265.503 300.908 266.101 303.186 266.101Z"/>
</mask>
<path d="M12.037 275.839H7.03703V280.839H12.037V275.839ZM12.037 212.629V207.629H7.03703V212.629H12.037ZM25.1916 212.629H30.1916V207.629H25.1916V212.629ZM25.1916 239.365H20.1916V253.008L29.0076 242.596L25.1916 239.365ZM47.8277 212.629V207.629H45.5096L44.0117 209.398L47.8277 212.629ZM64.0574 212.629L67.8288 215.911L75.0383 207.629H64.0574V212.629ZM37.6628 242.952L33.8914 239.67L31.0991 242.878L33.8176 246.148L37.6628 242.952ZM64.997 275.839V280.839H75.6545L68.8422 272.643L64.997 275.839ZM48.1694 275.839L44.2986 279.004L45.799 280.839H48.1694V275.839ZM25.1916 247.736L29.0624 244.571L20.1916 233.722V247.736H25.1916ZM25.1916 275.839V280.839H30.1916V275.839H25.1916ZM12.037 275.839H17.037V212.629H12.037H7.03703V275.839H12.037ZM12.037 212.629V217.629H25.1916V212.629V207.629H12.037V212.629ZM25.1916 212.629H20.1916V239.365H25.1916H30.1916V212.629H25.1916ZM25.1916 239.365L29.0076 242.596L51.6437 215.859L47.8277 212.629L44.0117 209.398L21.3756 236.134L25.1916 239.365ZM47.8277 212.629V217.629H64.0574V212.629V207.629H47.8277V212.629ZM64.0574 212.629L60.286 209.346L33.8914 239.67L37.6628 242.952L41.4343 246.235L67.8288 215.911L64.0574 212.629ZM37.6628 242.952L33.8176 246.148L61.1518 279.035L64.997 275.839L68.8422 272.643L41.508 239.756L37.6628 242.952ZM64.997 275.839V270.839H48.1694V275.839V280.839H64.997V275.839ZM48.1694 275.839L52.0403 272.674L29.0624 244.571L25.1916 247.736L21.3208 250.901L44.2986 279.004L48.1694 275.839ZM25.1916 247.736H20.1916V275.839H25.1916H30.1916V247.736H25.1916ZM25.1916 275.839V270.839H12.037V275.839V280.839H25.1916V275.839ZM77.2821 254.313H72.2821V259.313H77.2821V254.313ZM77.2821 244.063V239.063H72.2821V244.063H77.2821ZM109.314 244.063H114.314V239.063H109.314V244.063ZM109.314 254.313V259.313H114.314V254.313H109.314ZM77.2821 254.313H82.2821V244.063H77.2821H72.2821V254.313H77.2821ZM77.2821 244.063V249.063H109.314V244.063V239.063H77.2821V244.063ZM109.314 244.063H104.314V254.313H109.314H114.314V244.063H109.314ZM109.314 254.313V249.313H77.2821V254.313V259.313H109.314V254.313ZM125.068 275.839H120.068V280.839H125.068V275.839ZM125.068 212.629V207.629H120.068V212.629H125.068ZM169.229 212.629H174.229V207.629H169.229V212.629ZM169.229 224.075V229.075H174.229V224.075H169.229ZM138.222 224.075V219.075H133.222V224.075H138.222ZM138.222 240.646H133.222V245.646H138.222V240.646ZM165.3 240.646H170.3V235.646H165.3V240.646ZM165.3 251.665V256.665H170.3V251.665H165.3ZM138.222 251.665V246.665H133.222V251.665H138.222ZM138.222 275.839V280.839H143.222V275.839H138.222ZM125.068 275.839H130.068V212.629H125.068H120.068V275.839H125.068ZM125.068 212.629V217.629H169.229V212.629V207.629H125.068V212.629ZM169.229 212.629H164.229V224.075H169.229H174.229V212.629H169.229ZM169.229 224.075V219.075H138.222V224.075V229.075H169.229V224.075ZM138.222 224.075H133.222V240.646H138.222H143.222V224.075H138.222ZM138.222 240.646V245.646H165.3V240.646V235.646H138.222V240.646ZM165.3 240.646H160.3V251.665H165.3H170.3V240.646H165.3ZM165.3 251.665V246.665H138.222V251.665V256.665H165.3V251.665ZM138.222 251.665H133.222V275.839H138.222H143.222V251.665H138.222ZM138.222 275.839V270.839H125.068V275.839V280.839H138.222V275.839ZM184.681 273.447L182.019 277.679L182.043 277.695L182.068 277.71L184.681 273.447ZM176.566 264.82L172.108 267.084L172.13 267.127L172.152 267.169L176.566 264.82ZM176.566 241.671L172.137 239.351L172.13 239.364L172.123 239.378L176.566 241.671ZM184.681 233.044L187.294 237.307L187.319 237.292L187.343 237.276L184.681 233.044ZM210.478 233.044L207.815 237.276L207.84 237.292L207.865 237.307L210.478 233.044ZM218.507 241.671L214.049 243.935L214.071 243.978L214.093 244.02L218.507 241.671ZM218.507 264.82L214.078 262.5L214.071 262.513L214.064 262.527L218.507 264.82ZM210.478 273.447L213.09 277.71L213.115 277.695L213.14 277.679L210.478 273.447ZM203.302 264.307L200.302 260.307L200.267 260.334L200.233 260.36L203.302 264.307ZM206.975 259.609L211.55 261.627L211.561 261.603L211.571 261.579L206.975 259.609ZM206.975 246.796L202.401 248.814V248.814L206.975 246.796ZM203.302 242.098L200.233 246.045L200.267 246.072L200.302 246.098L203.302 242.098ZM191.771 242.098L188.771 238.098L191.771 242.098ZM188.098 246.796L183.523 244.778L183.498 244.835L183.474 244.893L188.098 246.796ZM188.098 259.609L183.455 261.466L183.488 261.547L183.523 261.627L188.098 259.609ZM191.771 264.307L188.771 268.307L191.771 264.307ZM197.579 276.693V271.693C193.227 271.693 189.879 270.769 187.294 269.184L184.681 273.447L182.068 277.71C186.544 280.454 191.795 281.693 197.579 281.693V276.693ZM184.681 273.447L187.343 269.215C184.518 267.437 182.431 265.198 180.98 262.471L176.566 264.82L172.152 267.169C174.459 271.503 177.783 275.015 182.019 277.679L184.681 273.447ZM176.566 264.82L181.024 262.555C179.57 259.693 178.833 256.6 178.833 253.203H173.833H168.833C168.833 258.12 169.918 262.771 172.108 267.084L176.566 264.82ZM173.833 253.203H178.833C178.833 249.805 179.57 246.753 181.009 243.964L176.566 241.671L172.123 239.378C169.918 243.651 168.833 248.286 168.833 253.203H173.833ZM176.566 241.671L180.995 243.991C182.446 241.222 184.515 239.01 187.294 237.307L184.681 233.044L182.068 228.781C177.786 231.405 174.445 234.945 172.137 239.351L176.566 241.671ZM184.681 233.044L187.343 237.276C189.92 235.655 193.249 234.712 197.579 234.712V229.712V224.712C191.773 224.712 186.503 225.991 182.019 228.811L184.681 233.044ZM197.579 229.712V234.712C201.909 234.712 205.238 235.655 207.815 237.276L210.478 233.044L213.14 228.811C208.655 225.991 203.386 224.712 197.579 224.712V229.712ZM210.478 233.044L207.865 237.307C210.632 239.003 212.658 241.197 214.049 243.935L218.507 241.671L222.965 239.407C220.711 234.97 217.385 231.413 213.09 228.781L210.478 233.044ZM218.507 241.671L214.093 244.02C215.572 246.799 216.326 249.832 216.326 253.203H221.326H226.326C226.326 248.26 225.2 243.605 222.921 239.322L218.507 241.671ZM221.326 253.203H216.326C216.326 256.574 215.572 259.647 214.078 262.5L218.507 264.82L222.936 267.14C225.2 262.817 226.326 258.146 226.326 253.203H221.326ZM218.507 264.82L214.064 262.527C212.672 265.223 210.629 267.445 207.815 269.215L210.478 273.447L213.14 277.679C217.387 275.008 220.697 271.478 222.95 267.113L218.507 264.82ZM210.478 273.447L207.865 269.184C205.28 270.769 201.932 271.693 197.579 271.693V276.693V281.693C203.363 281.693 208.614 280.454 213.09 277.71L210.478 273.447ZM197.579 266.101V271.101C200.773 271.101 203.814 270.244 206.372 268.254L203.302 264.307L200.233 260.36C199.716 260.762 198.941 261.101 197.579 261.101V266.101ZM203.302 264.307L206.302 268.307C208.626 266.565 210.372 264.298 211.55 261.627L206.975 259.609L202.401 257.591C201.871 258.793 201.168 259.658 200.302 260.307L203.302 264.307ZM206.975 259.609L211.571 261.579C212.705 258.932 213.257 256.123 213.257 253.203H208.257H203.257C203.257 254.838 202.954 256.3 202.38 257.64L206.975 259.609ZM208.257 253.203H213.257C213.257 250.245 212.712 247.413 211.55 244.778L206.975 246.796L202.401 248.814C202.947 250.052 203.257 251.491 203.257 253.203H208.257ZM206.975 246.796L211.55 244.778C210.372 242.107 208.626 239.841 206.302 238.098L203.302 242.098L200.302 246.098C201.168 246.748 201.871 247.613 202.401 248.814L206.975 246.796ZM203.302 242.098L206.372 238.151C203.814 236.162 200.773 235.304 197.579 235.304V240.304V245.304C198.941 245.304 199.716 245.643 200.233 246.045L203.302 242.098ZM197.579 240.304V235.304C194.381 235.304 191.351 236.163 188.771 238.098L191.771 242.098L194.771 246.098C195.379 245.642 196.222 245.304 197.579 245.304V240.304ZM191.771 242.098L188.771 238.098C186.447 239.841 184.701 242.107 183.523 244.778L188.098 246.796L192.672 248.814C193.202 247.613 193.905 246.748 194.771 246.098L191.771 242.098ZM188.098 246.796L183.474 244.893C182.401 247.498 181.902 250.29 181.902 253.203H186.902H191.902C191.902 251.446 192.2 249.967 192.721 248.7L188.098 246.796ZM186.902 253.203H181.902C181.902 256.077 182.408 258.847 183.455 261.466L188.098 259.609L192.74 257.752C192.193 256.385 191.902 254.884 191.902 253.203H186.902ZM188.098 259.609L183.523 261.627C184.701 264.298 186.447 266.565 188.771 268.307L191.771 264.307L194.771 260.307C193.905 259.658 193.202 258.793 192.672 257.591L188.098 259.609ZM191.771 264.307L188.771 268.307C191.351 270.243 194.381 271.101 197.579 271.101V266.101V261.101C196.222 261.101 195.379 260.763 194.771 260.307L191.771 264.307ZM231.008 275.839H226.008V280.839H231.008V275.839ZM231.008 210.92V205.92H226.008V210.92H231.008ZM243.991 210.92H248.991V205.92H243.991V210.92ZM243.991 275.839V280.839H248.991V275.839H243.991ZM231.008 275.839H236.008V210.92H231.008H226.008V275.839H231.008ZM231.008 210.92V215.92H243.991V210.92V205.92H231.008V210.92ZM243.991 210.92H238.991V275.839H243.991H248.991V210.92H243.991ZM243.991 275.839V270.839H231.008V275.839V280.839H243.991V275.839ZM256.897 222.281L253.293 225.746L253.327 225.782L253.361 225.816L256.897 222.281ZM256.897 211.774L260.432 215.31L260.467 215.275L260.501 215.24L256.897 211.774ZM267.916 211.774L264.381 215.31L264.415 215.345L264.451 215.379L267.916 211.774ZM267.916 222.281L271.382 225.885L271.417 225.851L271.452 225.816L267.916 222.281ZM255.957 275.839H250.957V280.839H255.957V275.839ZM255.957 230.567V225.567H250.957V230.567H255.957ZM268.941 230.567H273.941V225.567H268.941V230.567ZM268.941 275.839V280.839H273.941V275.839H268.941ZM262.449 224.416V219.416C261.308 219.416 260.792 219.105 260.432 218.745L256.897 222.281L253.361 225.816C255.849 228.304 259.035 229.416 262.449 229.416V224.416ZM256.897 222.281L260.501 218.815C259.943 218.235 259.761 217.728 259.761 217.07H254.761H249.761C249.761 220.399 251.004 223.366 253.293 225.746L256.897 222.281ZM254.761 217.07H259.761C259.761 216.221 259.994 215.748 260.432 215.31L256.897 211.774L253.361 208.239C250.953 210.648 249.761 213.706 249.761 217.07H254.761ZM256.897 211.774L260.501 215.24C260.874 214.852 261.368 214.553 262.449 214.553V209.553V204.553C258.975 204.553 255.767 205.736 253.293 208.309L256.897 211.774ZM262.449 209.553V214.553C263.337 214.553 263.872 214.801 264.381 215.31L267.916 211.774L271.452 208.239C268.999 205.786 265.89 204.553 262.449 204.553V209.553ZM267.916 211.774L264.451 215.379C264.923 215.832 265.137 216.284 265.137 217.07H270.137H275.137C275.137 213.643 273.871 210.564 271.382 208.17L267.916 211.774ZM270.137 217.07H265.137C265.137 217.665 264.976 218.15 264.381 218.745L267.916 222.281L271.452 225.816C273.817 223.451 275.137 220.462 275.137 217.07H270.137ZM267.916 222.281L264.451 218.677C263.955 219.153 263.397 219.416 262.449 219.416V224.416V229.416C265.829 229.416 268.916 228.256 271.382 225.885L267.916 222.281ZM255.957 275.839H260.957V230.567H255.957H250.957V275.839H255.957ZM255.957 230.567V235.567H268.941V230.567V225.567H255.957V230.567ZM268.941 230.567H263.941V275.839H268.941H273.941V230.567H268.941ZM268.941 275.839V270.839H255.957V275.839V280.839H268.941V275.839ZM290.287 273.447L287.625 277.679L287.65 277.695L287.674 277.71L290.287 273.447ZM282.172 264.82L277.715 267.084L277.736 267.127L277.759 267.169L282.172 264.82ZM282.172 241.671L277.743 239.351L277.736 239.364L277.729 239.378L282.172 241.671ZM290.287 233.044L292.9 237.307L292.925 237.292L292.95 237.276L290.287 233.044ZM316.084 233.044L313.422 237.276L313.446 237.292L313.471 237.307L316.084 233.044ZM324.113 241.671L319.655 243.935L319.677 243.978L319.7 244.02L324.113 241.671ZM324.113 264.82L319.684 262.5L319.677 262.513L319.67 262.527L324.113 264.82ZM316.084 273.447L318.697 277.71L318.722 277.695L318.746 277.679L316.084 273.447ZM308.909 264.307L305.909 260.307L305.874 260.334L305.839 260.36L308.909 264.307ZM312.582 259.609L317.156 261.627L317.167 261.603L317.177 261.579L312.582 259.609ZM312.582 246.796L308.007 248.814V248.814L312.582 246.796ZM308.909 242.098L305.839 246.045L305.874 246.072L305.909 246.098L308.909 242.098ZM297.377 242.098L294.377 238.098L297.377 242.098ZM293.704 246.796L289.129 244.778L289.104 244.835L289.081 244.893L293.704 246.796ZM293.704 259.609L289.062 261.466L289.094 261.547L289.129 261.627L293.704 259.609ZM297.377 264.307L294.377 268.307L297.377 264.307ZM303.186 276.693V271.693C298.833 271.693 295.485 270.769 292.9 269.184L290.287 273.447L287.674 277.71C292.151 280.454 297.402 281.693 303.186 281.693V276.693ZM290.287 273.447L292.95 269.215C290.124 267.437 288.038 265.198 286.586 262.471L282.172 264.82L277.759 267.169C280.065 271.503 283.389 275.015 287.625 277.679L290.287 273.447ZM282.172 264.82L286.63 262.555C285.176 259.693 284.439 256.6 284.439 253.203H279.439H274.439C274.439 258.12 275.524 262.771 277.715 267.084L282.172 264.82ZM279.439 253.203H284.439C284.439 249.805 285.176 246.753 286.616 243.964L282.172 241.671L277.729 239.378C275.524 243.651 274.439 248.286 274.439 253.203H279.439ZM282.172 241.671L286.602 243.991C288.052 241.222 290.121 239.01 292.9 237.307L290.287 233.044L287.674 228.781C283.392 231.405 280.051 234.945 277.743 239.351L282.172 241.671ZM290.287 233.044L292.95 237.276C295.526 235.655 298.856 234.712 303.186 234.712V229.712V224.712C297.379 224.712 292.109 225.991 287.625 228.811L290.287 233.044ZM303.186 229.712V234.712C307.515 234.712 310.845 235.655 313.422 237.276L316.084 233.044L318.746 228.811C314.262 225.991 308.992 224.712 303.186 224.712V229.712ZM316.084 233.044L313.471 237.307C316.238 239.003 318.264 241.197 319.655 243.935L324.113 241.671L328.571 239.407C326.318 234.97 322.991 231.413 318.697 228.781L316.084 233.044ZM324.113 241.671L319.7 244.02C321.178 246.799 321.932 249.832 321.932 253.203H326.932H331.932C331.932 248.26 330.807 243.605 328.527 239.322L324.113 241.671ZM326.932 253.203H321.932C321.932 256.574 321.178 259.647 319.684 262.5L324.113 264.82L328.542 267.14C330.807 262.817 331.932 258.146 331.932 253.203H326.932ZM324.113 264.82L319.67 262.527C318.278 265.223 316.235 267.445 313.422 269.215L316.084 273.447L318.746 277.679C322.994 275.008 326.304 271.478 328.556 267.113L324.113 264.82ZM316.084 273.447L313.471 269.184C310.886 270.769 307.538 271.693 303.186 271.693V276.693V281.693C308.97 281.693 314.221 280.454 318.697 277.71L316.084 273.447ZM303.186 266.101V271.101C306.379 271.101 309.42 270.244 311.978 268.254L308.909 264.307L305.839 260.36C305.322 260.762 304.548 261.101 303.186 261.101V266.101ZM308.909 264.307L311.909 268.307C314.232 266.565 315.978 264.298 317.156 261.627L312.582 259.609L308.007 257.591C307.477 258.793 306.774 259.658 305.909 260.307L308.909 264.307ZM312.582 259.609L317.177 261.579C318.312 258.932 318.863 256.123 318.863 253.203H313.863H308.863C308.863 254.838 308.56 256.3 307.986 257.64L312.582 259.609ZM313.863 253.203H318.863C318.863 250.245 318.319 247.413 317.156 244.778L312.582 246.796L308.007 248.814C308.553 250.052 308.863 251.491 308.863 253.203H313.863ZM312.582 246.796L317.156 244.778C315.978 242.107 314.232 239.841 311.909 238.098L308.909 242.098L305.909 246.098C306.774 246.748 307.477 247.613 308.007 248.814L312.582 246.796ZM308.909 242.098L311.978 238.151C309.42 236.162 306.379 235.304 303.186 235.304V240.304V245.304C304.548 245.304 305.322 245.643 305.839 246.045L308.909 242.098ZM303.186 240.304V235.304C299.987 235.304 296.958 236.163 294.377 238.098L297.377 242.098L300.377 246.098C300.985 245.642 301.828 245.304 303.186 245.304V240.304ZM297.377 242.098L294.377 238.098C292.054 239.841 290.308 242.107 289.129 244.778L293.704 246.796L298.279 248.814C298.809 247.613 299.511 246.748 300.377 246.098L297.377 242.098ZM293.704 246.796L289.081 244.893C288.008 247.498 287.508 250.29 287.508 253.203H292.508H297.508C297.508 251.446 297.806 249.967 298.327 248.7L293.704 246.796ZM292.508 253.203H287.508C287.508 256.077 288.014 258.847 289.062 261.466L293.704 259.609L298.346 257.752C297.8 256.385 297.508 254.884 297.508 253.203H292.508ZM293.704 259.609L289.129 261.627C290.308 264.298 292.054 266.565 294.377 268.307L297.377 264.307L300.377 260.307C299.511 259.658 298.809 258.793 298.279 257.591L293.704 259.609ZM297.377 264.307L294.377 268.307C296.958 270.243 299.987 271.101 303.186 271.101V266.101V261.101C301.828 261.101 300.985 260.763 300.377 260.307L297.377 264.307Z" fill="white" mask="url(#path-4-outside-2_832_306)"/>
</g>
</svg>
